<svg width="1080" height="1080" viewBox="0 0 1080 1080" fill="none" xmlns="http://www.w3.org/2000/svg">
<rect width="1080" height="1080" fill="white"/>
<path d="M739.805 465H339.785C332.724 465 327 470.724 327 477.785V602.703C327 609.763 332.724 615.487 339.785 615.487H739.805C746.865 615.487 752.589 609.763 752.589 602.703V477.785C752.589 470.724 746.865 465 739.805 465Z" fill="#1C85E8"/>
<path d="M459.293 539.502L469.32 539.503C470.197 539.501 471.038 539.152 471.657 538.531C472.277 537.911 472.625 537.07 472.625 536.193C472.625 535.316 472.277 534.475 471.657 533.854C471.038 533.234 470.197 532.885 469.32 532.883L459.293 532.883C458.415 532.883 457.573 533.232 456.953 533.852C456.332 534.473 455.983 535.315 455.983 536.193C455.983 537.07 456.332 537.912 456.953 538.533C457.573 539.154 458.415 539.502 459.293 539.502Z" fill="white"/>
<path d="M440.042 503.604C440.042 503.073 439.914 502.549 439.669 502.078C439.424 501.607 439.07 501.201 438.635 500.896C438.2 500.59 437.699 500.394 437.172 500.323C436.646 500.253 436.11 500.31 435.611 500.49L373.484 522.855H359.02C358.142 522.856 357.301 523.204 356.68 523.825C356.059 524.446 355.711 525.287 355.71 526.165V546.22C355.71 547.098 356.059 547.939 356.68 548.56C357.301 549.181 358.142 549.53 359.02 549.53L370.751 549.53L370.752 576.302C370.751 576.737 370.837 577.167 371.003 577.569C371.17 577.97 371.413 578.335 371.721 578.642C372.028 578.95 372.393 579.193 372.795 579.36C373.196 579.526 373.627 579.612 374.061 579.612H391.609C392.044 579.612 392.474 579.526 392.875 579.36C393.277 579.193 393.642 578.949 393.949 578.642C394.257 578.335 394.5 577.97 394.667 577.568C394.833 577.167 394.919 576.736 394.919 576.302V557.246L435.611 571.895C436.11 572.075 436.646 572.132 437.172 572.062C437.699 571.991 438.2 571.794 438.635 571.489C439.069 571.184 439.424 570.778 439.669 570.307C439.914 569.836 440.042 569.312 440.042 568.781L440.042 503.604ZM362.33 542.91L362.33 529.475L370.751 529.475L370.751 542.91L362.33 542.91ZM388.299 572.992L377.371 572.992V550.929L388.299 554.863V572.992ZM377.371 543.894V528.492L433.422 508.313L433.422 564.072L377.371 543.894Z" fill="white"/>
<path d="M459.127 561.427L454.113 556.413C453.806 556.105 453.441 555.862 453.039 555.695C452.638 555.529 452.207 555.443 451.773 555.443C451.338 555.443 450.908 555.529 450.506 555.695C450.105 555.862 449.74 556.105 449.432 556.413C449.125 556.72 448.881 557.085 448.715 557.487C448.549 557.888 448.463 558.319 448.463 558.753C448.463 559.188 448.549 559.618 448.715 560.02C448.881 560.421 449.125 560.786 449.432 561.094L454.446 566.107C454.753 566.415 455.118 566.658 455.52 566.825C455.921 566.991 456.352 567.077 456.786 567.077C457.221 567.077 457.652 566.991 458.053 566.825C458.455 566.658 458.82 566.415 459.127 566.107C459.434 565.8 459.678 565.435 459.844 565.034C460.011 564.632 460.096 564.202 460.096 563.767C460.096 563.332 460.011 562.902 459.844 562.5C459.678 562.099 459.434 561.734 459.127 561.427Z" fill="white"/>
<path d="M449.432 515.971C450.053 516.592 450.895 516.941 451.773 516.941C452.651 516.941 453.492 516.592 454.113 515.971L459.127 510.958C459.747 510.337 460.096 509.495 460.096 508.617C460.096 507.74 459.747 506.898 459.127 506.277C458.506 505.656 457.664 505.308 456.786 505.308C455.908 505.308 455.067 505.656 454.446 506.277L449.432 511.291C448.812 511.911 448.463 512.753 448.463 513.631C448.463 514.509 448.812 515.351 449.432 515.971Z" fill="white"/>
<path d="M514.05 506.26H579.513" stroke="white" stroke-width="14.8881" stroke-miterlimit="10" stroke-linecap="round"/>
<path d="M514.05 579.56H635.361" stroke="white" stroke-width="14.8881" stroke-miterlimit="10" stroke-linecap="round"/>
<path opacity="0.4" d="M514.05 542.91H669.336" stroke="white" stroke-width="14.8881" stroke-miterlimit="10" stroke-linecap="round"/>
</svg>
