<svg width="1080" height="1080" viewBox="0 0 1080 1080" fill="none" xmlns="http://www.w3.org/2000/svg">
<rect width="1080" height="1080" fill="white"/>
<path d="M607.291 506H472.309C466.615 506 462 510.615 462 516.309V564.521C462 570.214 466.615 574.829 472.309 574.829H607.291C612.984 574.829 617.599 570.214 617.599 564.521V516.309C617.599 510.615 612.984 506 607.291 506Z" fill="url(#paint0_linear)"/>
<path d="M512.587 516.959H483.302C478.435 516.959 474.489 520.905 474.489 525.772V555.057C474.489 559.924 478.435 563.87 483.302 563.87H512.587C517.455 563.87 521.4 559.924 521.4 555.057V525.772C521.4 520.905 517.455 516.959 512.587 516.959Z" fill="white"/>
<path d="M533.668 534.504H566.351" stroke="white" stroke-width="7.4328" stroke-miterlimit="10" stroke-linecap="round"/>
<path opacity="0.4" d="M533.668 549.757H601.209" stroke="white" stroke-width="7.4328" stroke-miterlimit="10" stroke-linecap="round"/>
<path d="M479.944 552.691L487.421 542.231C487.694 541.849 488.054 541.536 488.472 541.32C488.889 541.103 489.352 540.989 489.822 540.985C490.292 540.982 490.756 541.09 491.176 541.301C491.596 541.511 491.961 541.818 492.24 542.197L501.631 554.949C501.935 555.361 502.118 555.849 502.161 556.36C502.203 556.87 502.103 557.382 501.872 557.839C501.641 558.296 501.288 558.68 500.852 558.948C500.416 559.216 499.914 559.358 499.402 559.358H483.374C482.599 559.358 481.84 559.145 481.178 558.741C480.517 558.338 479.979 557.76 479.625 557.071C479.271 556.382 479.113 555.609 479.169 554.836C479.226 554.063 479.494 553.321 479.944 552.691V552.691Z" fill="#1C85E8"/>
<path d="M500.116 550.036L505.689 557.833C506.026 558.305 506.471 558.689 506.986 558.954C507.502 559.22 508.074 559.358 508.653 559.358H510.879C511.903 559.358 512.909 559.089 513.797 558.578C514.685 558.067 515.423 557.333 515.938 556.447C516.453 555.561 516.726 554.556 516.73 553.532C516.735 552.508 516.47 551.5 515.963 550.61L508.131 536.863C507.923 536.497 507.618 536.197 507.249 535.994C506.881 535.792 506.464 535.695 506.044 535.716C505.624 535.736 505.217 535.872 504.87 536.109C504.523 536.346 504.248 536.674 504.076 537.058L499.777 546.64C499.532 547.186 499.435 547.787 499.494 548.383C499.553 548.979 499.768 549.549 500.116 550.036V550.036Z" fill="#1C85E8"/>
<path d="M492.51 532.662C495.087 532.662 497.177 530.573 497.177 527.996C497.177 525.419 495.087 523.33 492.51 523.33C489.933 523.33 487.844 525.419 487.844 527.996C487.844 530.573 489.933 532.662 492.51 532.662Z" fill="url(#paint1_linear)"/>
<defs>
<linearGradient id="paint0_linear" x1="521.786" y1="484.1" x2="532.09" y2="653.927" gradientUnits="userSpaceOnUse">
<stop stop-color="white"/>
<stop offset="1" stop-color="#94B9FF"/>
</linearGradient>
<linearGradient id="paint1_linear" x1="492.278" y1="523.308" x2="494.423" y2="543.094" gradientUnits="userSpaceOnUse">
<stop stop-color="white"/>
<stop offset="1" stop-color="#94B9FF"/>
</linearGradient>
</defs>
</svg>
