<svg width="1080" height="1080" viewBox="0 0 1080 1080" fill="none" xmlns="http://www.w3.org/2000/svg">
<rect width="1080" height="1080" fill="white"/>
<path d="M540.103 726.299C833.975 726.299 1072.21 720.212 1072.21 712.704C1072.21 705.197 833.975 699.11 540.103 699.11C246.231 699.11 8 705.197 8 712.704C8 720.212 246.231 726.299 540.103 726.299Z" fill="#F5F8FF"/>
<path d="M270.862 369.241L177.292 705.136H196.353L304.506 369.241H270.862Z" fill="#D1E8F7"/>
<path d="M984.245 353H111.49V369.241H984.245V353Z" fill="url(#paint0_linear)"/>
<path d="M141.906 369.241L48.3359 705.136H67.3969L175.549 369.241H141.906Z" fill="#E7EFFF"/>
<path d="M141.906 369.241L135.036 393.902L170.887 383.72L175.549 369.241H141.906Z" fill="#96BAFD"/>
<path d="M939.568 369.241L1033.14 705.136H1014.08L905.924 369.241H939.568Z" fill="#D1E8F7"/>
<path d="M939.568 369.241L944.82 388.095L910.771 384.292L905.924 369.241H939.568Z" fill="#5CA4E6"/>
<path d="M984.245 353H840.575V369.241H984.245V353Z" fill="#96BAFD"/>
<path d="M810.611 369.241L904.181 705.136H885.121L776.968 369.241H810.611Z" fill="#E7EFFF"/>
<path d="M810.611 369.241L817.481 393.902L781.63 383.72L776.968 369.241H810.611Z" fill="#5CA4E6"/>
<defs>
<linearGradient id="paint0_linear" x1="526.141" y1="352.961" x2="526.211" y2="387.801" gradientUnits="userSpaceOnUse">
<stop stop-color="white"/>
<stop offset="1" stop-color="#94B9FF"/>
</linearGradient>
</defs>
</svg>
