<svg width="1080" height="1080" viewBox="0 0 1080 1080" fill="none" xmlns="http://www.w3.org/2000/svg">
<rect width="1080" height="1080" fill="white"/>
<path d="M577.073 499H503.303C499.27 499 496 502.27 496 506.303V573.612C496 577.645 499.27 580.915 503.303 580.915H577.073C581.106 580.915 584.376 577.645 584.376 573.612V506.303C584.376 502.27 581.106 499 577.073 499Z" fill="#1C85E8"/>
<path d="M512.674 552.402L525.516 539.56C526.355 538.72 527.494 538.249 528.681 538.249C529.868 538.249 531.007 538.72 531.847 539.56L541.89 549.604C542.73 550.443 543.869 550.915 545.056 550.915C546.243 550.915 547.382 550.443 548.222 549.604L564.638 533.188" stroke="white" stroke-width="5.16228" stroke-miterlimit="10" stroke-linecap="round"/>
<path d="M557.019 530.231H566.146C566.559 530.231 566.954 530.395 567.246 530.687C567.538 530.979 567.702 531.374 567.702 531.787V540.047" stroke="white" stroke-width="5.16228" stroke-miterlimit="10" stroke-linecap="round"/>
</svg>
