<svg width="1080" height="1080" viewBox="0 0 1080 1080" fill="none" xmlns="http://www.w3.org/2000/svg">
<rect width="1080" height="1080" fill="white"/>
<path opacity="0.7" d="M455.308 458.384C482.222 466.068 545.186 479.8 627.692 470.328C629.017 470.139 630.368 470.242 631.65 470.627C632.932 471.013 634.115 471.673 635.116 472.562C636.118 473.451 636.913 474.547 637.449 475.774C637.984 477.002 638.245 478.331 638.215 479.669V607.003C638.155 609.812 637.105 612.51 635.25 614.622C633.396 616.733 630.857 618.123 628.079 618.545C598.702 622.562 511.478 631.153 446.479 603.088C444.815 602.353 443.407 601.141 442.432 599.606C441.458 598.07 440.96 596.28 441.002 594.462V469.646C441.002 462.262 448.434 456.421 455.308 458.384Z" fill="url(#paint0_linear)"/>
<defs>
<linearGradient id="paint0_linear" x1="534.699" y1="457.608" x2="566.539" y2="808.651" gradientUnits="userSpaceOnUse">
<stop stop-color="white"/>
<stop offset="1" stop-color="#94B9FF"/>
</linearGradient>
</defs>
</svg>
