<svg width="1080" height="1080" viewBox="0 0 1080 1080" fill="none" xmlns="http://www.w3.org/2000/svg">
<rect width="1080" height="1080" fill="white"/>
<path d="M642.985 591.481H426.369C425.475 591.499 424.588 591.324 423.767 590.969C422.947 590.614 422.212 590.088 421.612 589.424C421.013 588.761 420.563 587.977 420.292 587.125C420.022 586.272 419.938 585.372 420.045 584.484L428.551 495.998C428.764 494.1 429.659 492.344 431.07 491.057C432.48 489.769 434.311 489.039 436.22 489.001H652.836C653.73 488.984 654.617 489.158 655.438 489.513C656.259 489.868 656.994 490.395 657.593 491.058C658.193 491.721 658.643 492.505 658.913 493.358C659.183 494.21 659.268 495.11 659.16 495.998L650.654 584.484C650.442 586.382 649.547 588.138 648.136 589.426C646.725 590.713 644.894 591.443 642.985 591.481Z" fill="#FEBB94"/>
<path d="M446.706 512.077H580.389" stroke="#EF6A77" stroke-width="11.6898" stroke-miterlimit="10" stroke-linecap="round"/>
<path d="M446.706 512.077H539.603" stroke="white" stroke-width="11.6898" stroke-miterlimit="10" stroke-linecap="round"/>
<path d="M444.706 540.241H578.389" stroke="#EF6A77" stroke-width="11.6898" stroke-miterlimit="10" stroke-linecap="round"/>
<path d="M444.706 540.241H500.246" stroke="white" stroke-width="11.6898" stroke-miterlimit="10" stroke-linecap="round"/>
<path d="M440.335 568.405H574.017" stroke="#EF6A77" stroke-width="11.6898" stroke-miterlimit="10" stroke-linecap="round"/>
<path d="M440.335 568.405H474.3" stroke="white" stroke-width="11.6898" stroke-miterlimit="10" stroke-linecap="round"/>
<path d="M627.71 520.064C632.121 520.064 635.698 516.488 635.698 512.077C635.698 507.665 632.121 504.089 627.71 504.089C623.298 504.089 619.722 507.665 619.722 512.077C619.722 516.488 623.298 520.064 627.71 520.064Z" fill="white"/>
<path d="M625.12 546.997C629.531 546.997 633.107 543.421 633.107 539.009C633.107 534.598 629.531 531.021 625.12 531.021C620.708 531.021 617.132 534.598 617.132 539.009C617.132 543.421 620.708 546.997 625.12 546.997Z" fill="white"/>
<path d="M622.228 576.393C626.64 576.393 630.216 572.817 630.216 568.406C630.216 563.994 626.64 560.418 622.228 560.418C617.817 560.418 614.241 563.994 614.241 568.406C614.241 572.817 617.817 576.393 622.228 576.393Z" fill="white"/>
</svg>
