<svg width="1080" height="1080" viewBox="0 0 1080 1080" fill="none" xmlns="http://www.w3.org/2000/svg">
<rect width="1080" height="1080" fill="white"/>
<path d="M586.59 494H493.309C487.615 494 483 498.615 483 504.309V575.015C483 580.708 487.615 585.324 493.309 585.324H586.59C592.284 585.324 596.899 580.708 596.899 575.015V504.309C596.899 498.615 592.284 494 586.59 494Z" fill="#1C85E8"/>
<path d="M508.262 535.877C516.808 535.877 523.736 528.949 523.736 520.403C523.736 511.857 516.808 504.93 508.262 504.93C499.717 504.93 492.789 511.857 492.789 520.403C492.789 528.949 499.717 535.877 508.262 535.877Z" fill="#5CA4E6"/>
<path d="M504.163 516.662V525.627C504.163 525.888 504.232 526.143 504.362 526.369C504.492 526.594 504.679 526.782 504.904 526.912C505.129 527.042 505.385 527.111 505.645 527.111C505.906 527.112 506.161 527.044 506.387 526.914L514.183 522.431C514.409 522.301 514.597 522.114 514.728 521.888C514.859 521.662 514.927 521.405 514.927 521.145C514.927 520.884 514.859 520.627 514.728 520.401C514.597 520.175 514.409 519.988 514.183 519.858L506.387 515.375C506.161 515.246 505.906 515.177 505.645 515.178C505.385 515.178 505.129 515.247 504.904 515.377C504.679 515.508 504.492 515.695 504.362 515.92C504.232 516.146 504.163 516.402 504.163 516.662Z" fill="white"/>
<path d="M496.172 550.396H532.408" stroke="white" stroke-width="7.4328" stroke-miterlimit="10" stroke-linecap="round"/>
<path opacity="0.4" d="M496.172 567.963H571.315" stroke="white" stroke-width="7.4328" stroke-miterlimit="10" stroke-linecap="round"/>
<path d="M566.368 521.322L569.857 517.834C570.104 517.587 570.398 517.391 570.721 517.257C571.044 517.123 571.39 517.054 571.74 517.054C572.09 517.054 572.436 517.123 572.759 517.257C573.083 517.391 573.376 517.587 573.624 517.834L575.63 519.84C576.129 520.34 576.807 520.621 577.513 520.621C578.22 520.621 578.897 520.34 579.397 519.84L583.705 515.532" stroke="white" stroke-width="1.47438" stroke-miterlimit="10" stroke-linecap="round"/>
<path d="M581.006 514.65H583.838C584.043 514.65 584.239 514.732 584.384 514.877C584.529 515.022 584.611 515.219 584.611 515.424V517.665" stroke="white" stroke-width="1.47438" stroke-miterlimit="10" stroke-linecap="round"/>
</svg>
