<svg width="1080" height="1080" viewBox="0 0 1080 1080" fill="none" xmlns="http://www.w3.org/2000/svg">
<rect width="1080" height="1080" fill="white"/>
<g opacity="0.7">
<path d="M420.286 395.589C455.452 421.411 548.195 488.797 665.983 478.096C667.129 477.961 668.29 478.075 669.388 478.429C670.487 478.782 671.496 479.368 672.348 480.146C673.2 480.924 673.874 481.877 674.326 482.938C674.777 484 674.995 485.146 674.964 486.3V672.933C674.905 675.404 673.995 677.778 672.39 679.656C670.784 681.534 668.58 682.802 666.15 683.245C630.735 689.207 483.444 686.263 407.458 610.211C406.672 609.423 406.05 608.486 405.628 607.456C405.206 606.425 404.993 605.322 405 604.208V404.471C405 396.56 414.267 391.17 420.286 395.589Z" fill="#96BAFD"/>
</g>
<path d="M477.519 584.422C457.895 577.502 441.986 555.985 441.986 536.36C441.986 516.736 457.895 506.437 477.519 513.357L477.519 513.357V490.549L477.519 490.549C445.816 479.37 420.115 496.009 420.115 527.712C420.115 559.415 445.816 594.177 477.519 605.355C507.882 616.062 532.723 601.241 534.769 572.119L512.913 564.412C511.368 582.066 496.117 590.98 477.519 584.422Z" fill="white"/>
<path d="M484.807 485.83V508.638C504.431 515.557 520.34 537.075 520.34 556.699C520.34 557.725 520.286 558.72 520.201 559.693L542.058 567.4C542.148 566.115 542.21 564.813 542.21 563.474C542.21 531.771 516.51 497.009 484.807 485.83Z" fill="#1C85E8"/>
<path d="M441.986 536.36L420.115 528.648" stroke="white" stroke-width="2.42819" stroke-miterlimit="10"/>
<path d="M569.574 539.621L610.158 547.333" stroke="white" stroke-width="10.368" stroke-miterlimit="10" stroke-linecap="round"/>
<path opacity="0.4" d="M569.574 603.209L610.158 610.921" stroke="white" stroke-width="10.368" stroke-miterlimit="10" stroke-linecap="round"/>
<path d="M569.574 572.062L627.88 583.142" stroke="white" stroke-width="10.368" stroke-miterlimit="10" stroke-linecap="round"/>
</svg>
