<svg width="1080" height="1080" viewBox="0 0 1080 1080" fill="none" xmlns="http://www.w3.org/2000/svg">
<rect width="1080" height="1080" fill="white"/>
<path d="M662.307 443H417.027C411.489 443 407 447.489 407 453.027V626.092C407 631.63 411.489 636.119 417.027 636.119H662.307C667.845 636.119 672.334 631.63 672.334 626.092V453.027C672.334 447.489 667.845 443 662.307 443Z" fill="#FEBB94"/>
<path d="M442.233 477.798H434.97L433.722 481.342H430.752L436.966 463.971H440.261L446.475 481.342H443.48L442.233 477.798ZM441.434 475.477L438.614 467.415L435.768 475.477H441.434ZM448.229 474.404C448.229 473.023 448.512 471.8 449.078 470.735C449.66 469.67 450.442 468.846 451.424 468.264C452.422 467.665 453.528 467.366 454.743 467.366C455.641 467.366 456.523 467.565 457.388 467.965C458.27 468.347 458.969 468.863 459.485 469.512V462.873H462.355V481.342H459.485V479.27C459.019 479.936 458.37 480.485 457.538 480.918C456.723 481.35 455.783 481.566 454.718 481.566C453.52 481.566 452.422 481.267 451.424 480.668C450.442 480.052 449.66 479.204 449.078 478.122C448.512 477.024 448.229 475.785 448.229 474.404ZM459.485 474.453C459.485 473.505 459.285 472.681 458.886 471.983C458.503 471.284 457.996 470.751 457.363 470.385C456.731 470.019 456.049 469.836 455.317 469.836C454.585 469.836 453.903 470.019 453.27 470.385C452.638 470.735 452.122 471.259 451.723 471.958C451.34 472.64 451.149 473.455 451.149 474.404C451.149 475.352 451.34 476.184 451.723 476.899C452.122 477.615 452.638 478.164 453.27 478.547C453.919 478.913 454.601 479.096 455.317 479.096C456.049 479.096 456.731 478.913 457.363 478.547C457.996 478.18 458.503 477.648 458.886 476.949C459.285 476.234 459.485 475.402 459.485 474.453ZM471.084 481.566C470.002 481.566 469.029 481.375 468.164 480.992C467.315 480.593 466.641 480.061 466.142 479.395C465.643 478.713 465.377 477.956 465.343 477.124H468.288C468.338 477.706 468.613 478.197 469.112 478.596C469.628 478.979 470.268 479.17 471.034 479.17C471.832 479.17 472.448 479.021 472.88 478.721C473.33 478.405 473.554 478.006 473.554 477.523C473.554 477.007 473.305 476.625 472.806 476.375C472.323 476.126 471.549 475.851 470.485 475.552C469.453 475.269 468.613 474.994 467.964 474.728C467.315 474.462 466.749 474.054 466.267 473.505C465.801 472.956 465.568 472.232 465.568 471.334C465.568 470.602 465.784 469.936 466.217 469.337C466.649 468.722 467.265 468.239 468.064 467.89C468.879 467.54 469.811 467.366 470.859 467.366C472.423 467.366 473.679 467.765 474.628 468.563C475.593 469.345 476.108 470.419 476.175 471.783H473.33C473.28 471.167 473.03 470.677 472.581 470.311C472.132 469.944 471.524 469.761 470.759 469.761C470.01 469.761 469.436 469.903 469.037 470.186C468.638 470.469 468.438 470.843 468.438 471.309C468.438 471.675 468.571 471.983 468.837 472.232C469.104 472.482 469.428 472.681 469.811 472.831C470.193 472.964 470.759 473.139 471.508 473.355C472.506 473.622 473.321 473.896 473.954 474.179C474.603 474.445 475.16 474.844 475.626 475.377C476.092 475.909 476.333 476.616 476.35 477.498C476.35 478.28 476.133 478.979 475.701 479.595C475.268 480.21 474.652 480.693 473.854 481.042C473.072 481.392 472.148 481.566 471.084 481.566Z" fill="white"/>
<path d="M590.197 551.147C590.197 561.141 587.233 570.91 581.681 579.22C576.129 587.529 568.237 594.006 559.004 597.83C549.771 601.655 539.611 602.655 529.809 600.706C520.007 598.756 511.004 593.944 503.937 586.877C496.87 579.81 492.058 570.807 490.108 561.005C488.159 551.203 489.159 541.043 492.984 531.81C496.808 522.577 503.285 514.685 511.594 509.133C519.904 503.581 529.673 500.617 539.667 500.617" stroke="white" stroke-width="17.1948" stroke-miterlimit="10"/>
<path d="M549.079 490.955C562.48 490.955 575.332 496.279 584.809 505.755C594.285 515.231 599.608 528.083 599.608 541.485" stroke="#1C85E8" stroke-width="17.1948" stroke-miterlimit="10"/>
<path d="M430.276 599.724H459.852" stroke="white" stroke-width="6.72632" stroke-miterlimit="10" stroke-linecap="round"/>
<path opacity="0.4" d="M430.276 616.281H491.397" stroke="white" stroke-width="6.72632" stroke-miterlimit="10" stroke-linecap="round"/>
<path d="M599.608 599.891H629.184" stroke="white" stroke-width="6.72632" stroke-miterlimit="10" stroke-linecap="round"/>
<path opacity="0.4" d="M599.608 616.448H660.729" stroke="white" stroke-width="6.72632" stroke-miterlimit="10" stroke-linecap="round"/>
</svg>
