<svg width="1080" height="1080" viewBox="0 0 1080 1080" fill="none" xmlns="http://www.w3.org/2000/svg">
<rect width="1080" height="1080" fill="white"/>
<path d="M753.501 366H265.343C258.091 366 252.212 371.879 252.212 379.13V700.46C252.212 707.712 258.091 713.59 265.343 713.59H753.501C760.753 713.59 766.631 707.712 766.631 700.46V379.13C766.631 371.879 760.753 366 753.501 366Z" fill="url(#paint0_linear)"/>
<path d="M742.55 592.391H651.594C648.22 592.391 645.485 595.126 645.485 598.5V697.208C645.485 700.582 648.22 703.317 651.594 703.317H742.55C745.924 703.317 748.659 700.582 748.659 697.208V598.5C748.659 595.126 745.924 592.391 742.55 592.391Z" fill="#FEBB94"/>
<path d="M405.024 591.352H273.467C270.609 591.352 268.293 593.668 268.293 596.525V698.144C268.293 701.001 270.609 703.317 273.467 703.317H405.024C407.881 703.317 410.197 701.001 410.197 698.144V596.525C410.197 593.668 407.881 591.352 405.024 591.352Z" fill="white"/>
<path d="M629.202 591.352H427.127C423.612 591.352 420.762 594.201 420.762 597.716V696.952C420.762 700.468 423.612 703.317 427.127 703.317H629.202C632.717 703.317 635.567 700.468 635.567 696.952V597.716C635.567 594.201 632.717 591.352 629.202 591.352Z" fill="white"/>
<path d="M740.493 411.398H557.514C553.004 411.398 549.348 415.054 549.348 419.564V573.197C549.348 577.707 553.004 581.363 557.514 581.363H740.493C745.003 581.363 748.659 577.707 748.659 573.197V419.564C748.659 415.054 745.003 411.398 740.493 411.398Z" fill="#1C85E8"/>
<path d="M528.396 411.398H276.407C271.926 411.398 268.293 415.031 268.293 419.513V573.086C268.293 577.568 271.926 581.2 276.407 581.2H528.396C532.877 581.2 536.51 577.568 536.51 573.086V419.513C536.51 415.031 532.877 411.398 528.396 411.398Z" fill="#FEBB94"/>
<path d="M442.601 615.477H456.073" stroke="#D4DCF4" stroke-width="12" stroke-miterlimit="10" stroke-linecap="round"/>
<path d="M485.727 615.477H611.182" stroke="#5661AE" stroke-width="12" stroke-miterlimit="10" stroke-linecap="round"/>
<path d="M442.601 644.986H456.073" stroke="#D4DCF4" stroke-width="12" stroke-miterlimit="10" stroke-linecap="round"/>
<path d="M485.727 644.986H544.139" stroke="#5661AE" stroke-width="12" stroke-miterlimit="10" stroke-linecap="round"/>
<path d="M442.601 675.012H456.073" stroke="#D4DCF4" stroke-width="12" stroke-miterlimit="10" stroke-linecap="round"/>
<path d="M485.727 675.012H586.179" stroke="#5661AE" stroke-width="12" stroke-miterlimit="10" stroke-linecap="round"/>
<path d="M286.129 502.498C286.129 502.498 308.335 497.82 315.378 508.62C322.421 519.419 329.464 539.705 345.429 537.075C361.393 534.444 369.098 481.383 385.062 481.853C401.026 482.322 398.487 517.071 415.86 517.541C433.233 518.01 428.391 498.12 439.99 498.664C454.061 499.324 452.484 540.548 470.796 541.018C489.108 541.487 487.23 486.551 514.933 487.49" stroke="white" stroke-width="6.35676" stroke-miterlimit="10" stroke-linecap="round"/>
<path d="M293.21 437.104H337.544" stroke="white" stroke-width="10.0826" stroke-miterlimit="10" stroke-linecap="round"/>
<path opacity="0.4" d="M293.21 457.793H384.829" stroke="white" stroke-width="10.0826" stroke-miterlimit="10" stroke-linecap="round"/>
<path opacity="0.4" d="M649.004 525.201C664.921 525.201 677.825 512.298 677.825 496.38C677.825 480.462 664.921 467.559 649.004 467.559C633.086 467.559 620.182 480.462 620.182 496.38C620.182 512.298 633.086 525.201 649.004 525.201Z" fill="white"/>
<path d="M640.088 488.445V506.738C640.088 507.245 640.22 507.743 640.471 508.184C640.722 508.625 641.083 508.992 641.519 509.251C641.956 509.51 642.452 509.65 642.959 509.659C643.466 509.668 643.966 509.544 644.411 509.301L661.133 500.155C661.593 499.903 661.977 499.532 662.244 499.081C662.511 498.63 662.652 498.116 662.652 497.591C662.652 497.067 662.511 496.552 662.244 496.102C661.977 495.651 661.593 495.28 661.133 495.028L644.411 485.882C643.966 485.638 643.466 485.515 642.959 485.524C642.452 485.533 641.956 485.673 641.519 485.932C641.083 486.191 640.722 486.558 640.471 486.999C640.22 487.439 640.088 487.938 640.088 488.445Z" fill="white"/>
<path d="M265.748 366H753.096C756.686 366 760.128 367.426 762.667 369.965C765.205 372.503 766.631 375.946 766.631 379.536V399.927H252.212V379.536C252.212 375.946 253.638 372.503 256.177 369.965C258.715 367.426 262.158 366 265.748 366V366Z" fill="#5CA4E6"/>
<path d="M230.986 411.398H178.619C174.964 411.398 172 414.362 172 418.018V470.384C172 474.04 174.964 477.004 178.619 477.004H230.986C234.642 477.004 237.605 474.04 237.605 470.384V418.018C237.605 414.362 234.642 411.398 230.986 411.398Z" fill="#1C85E8"/>
<path d="M230.986 492.398H178.619C174.964 492.398 172 495.362 172 499.018V551.384C172 555.04 174.964 558.004 178.619 558.004H230.986C234.642 558.004 237.605 555.04 237.605 551.384V499.018C237.605 495.362 234.642 492.398 230.986 492.398Z" fill="#1C85E8"/>
<path d="M226.152 516.359C226.117 514.579 225.78 512.818 225.154 511.152C224.601 509.726 223.757 508.431 222.676 507.349C221.594 506.268 220.299 505.424 218.873 504.871C217.206 504.246 215.446 503.909 213.666 503.874C211.368 503.764 210.639 503.739 204.811 503.739C198.983 503.739 198.254 503.764 195.964 503.865C194.185 503.9 192.424 504.237 190.757 504.863C189.331 505.415 188.036 506.259 186.954 507.341C185.873 508.422 185.029 509.717 184.477 511.144C183.852 512.81 183.514 514.571 183.479 516.351C183.37 518.648 183.344 519.378 183.344 525.206C183.344 531.034 183.37 531.763 183.47 534.052C183.505 535.832 183.843 537.593 184.468 539.26C185.021 540.686 185.865 541.981 186.946 543.062C188.028 544.144 189.323 544.988 190.749 545.54C192.416 546.165 194.176 546.502 195.956 546.538C198.245 546.639 198.975 546.664 204.803 546.664C210.631 546.664 211.36 546.639 213.649 546.538C215.429 546.503 217.19 546.166 218.856 545.54C220.283 544.989 221.579 544.145 222.66 543.063C223.742 541.982 224.585 540.686 225.137 539.26C225.762 537.593 226.099 535.832 226.135 534.052C226.235 531.763 226.261 531.034 226.261 525.206C226.261 519.378 226.252 518.648 226.152 516.359ZM222.286 533.885C222.272 535.245 222.023 536.593 221.548 537.868C221.19 538.793 220.643 539.634 219.941 540.336C219.239 541.038 218.399 541.585 217.473 541.943C216.198 542.416 214.85 542.666 213.49 542.681C211.226 542.781 210.547 542.806 204.819 542.806C199.092 542.806 198.405 542.781 196.149 542.681C194.788 542.667 193.441 542.417 192.166 541.943C191.234 541.601 190.392 541.054 189.701 540.341C188.99 539.649 188.443 538.807 188.099 537.876C187.625 536.601 187.376 535.253 187.361 533.893C187.26 531.629 187.236 530.95 187.236 525.222C187.236 519.495 187.26 518.808 187.361 516.552C187.375 515.192 187.625 513.844 188.099 512.569C188.441 511.635 188.992 510.792 189.709 510.104C190.401 509.393 191.244 508.846 192.174 508.502C193.45 508.029 194.797 507.779 196.157 507.764C198.421 507.664 199.101 507.638 204.828 507.638C210.563 507.638 211.242 507.664 213.498 507.764C214.859 507.778 216.206 508.028 217.481 508.502C218.413 508.844 219.256 509.391 219.946 510.104C220.657 510.796 221.204 511.638 221.548 512.569C222.022 513.844 222.271 515.192 222.286 516.552C222.387 518.816 222.412 519.495 222.412 525.222C222.412 530.95 222.387 531.621 222.286 533.885Z" fill="white"/>
<path d="M204.811 514.18C202.63 514.18 200.498 514.826 198.685 516.038C196.872 517.25 195.458 518.972 194.624 520.987C193.789 523.002 193.571 525.219 193.996 527.358C194.422 529.497 195.472 531.461 197.014 533.003C198.556 534.546 200.521 535.596 202.66 536.021C204.799 536.447 207.016 536.228 209.031 535.394C211.046 534.559 212.768 533.146 213.98 531.333C215.191 529.519 215.838 527.387 215.838 525.206C215.837 522.282 214.675 519.478 212.607 517.41C210.54 515.342 207.735 514.18 204.811 514.18ZM204.811 532.359C203.396 532.359 202.014 531.94 200.837 531.154C199.661 530.368 198.744 529.251 198.203 527.944C197.661 526.637 197.52 525.198 197.796 523.811C198.072 522.423 198.753 521.149 199.753 520.149C200.754 519.148 202.028 518.467 203.416 518.191C204.803 517.915 206.241 518.057 207.548 518.598C208.855 519.139 209.972 520.056 210.758 521.233C211.544 522.409 211.964 523.792 211.964 525.206C211.964 527.103 211.21 528.923 209.869 530.264C208.527 531.605 206.708 532.359 204.811 532.359Z" fill="white"/>
<path d="M218.848 513.743C218.848 514.252 218.697 514.75 218.414 515.173C218.132 515.597 217.73 515.927 217.259 516.122C216.789 516.317 216.271 516.368 215.772 516.268C215.272 516.169 214.814 515.924 214.454 515.564C214.094 515.204 213.848 514.745 213.749 514.246C213.65 513.746 213.701 513.229 213.895 512.758C214.09 512.288 214.42 511.886 214.843 511.603C215.267 511.32 215.765 511.169 216.274 511.169C216.956 511.169 217.611 511.44 218.094 511.923C218.577 512.406 218.848 513.06 218.848 513.743Z" fill="white"/>
<path d="M211.304 432.821H215.043V426.308C213.234 426.11 211.416 426.013 209.596 426.02C204.205 426.02 200.512 429.411 200.512 435.643V441.379H194.562V448.66H200.512V466.979H207.805V448.661H213.514L214.42 441.381H207.804V436.365C207.806 434.261 208.372 432.821 211.304 432.821H211.304Z" fill="white"/>
<path d="M837.583 542.167C876.566 542.167 908.167 510.566 908.167 471.583C908.167 432.601 876.566 401 837.583 401C798.601 401 767 432.601 767 471.583C767 510.566 798.601 542.167 837.583 542.167Z" fill="#FEBB94"/>
<path d="M862.74 469.868C862.74 465.302 861.499 460.823 859.148 456.909C856.798 452.995 853.427 449.794 849.398 447.648C845.368 445.503 840.831 444.494 836.271 444.729C831.712 444.964 827.302 446.434 823.515 448.983C819.727 451.531 816.703 455.062 814.768 459.197C812.833 463.332 812.058 467.915 812.528 472.456C812.997 476.998 814.693 481.326 817.433 484.977C820.173 488.629 823.855 491.466 828.083 493.186V501.447H847.051V493.186C851.688 491.3 855.658 488.074 858.453 483.92C861.247 479.766 862.74 474.874 862.74 469.868V469.868Z" stroke="white" stroke-width="3.71807" stroke-linecap="round" stroke-linejoin="round"/>
<path d="M828.084 501.447H847.115V505.498C847.115 507.214 846.433 508.86 845.219 510.074C844.006 511.288 842.359 511.97 840.643 511.97H834.556C832.839 511.97 831.193 511.288 829.979 510.074C828.766 508.86 828.084 507.214 828.084 505.498V501.447V501.447Z" stroke="white" stroke-width="3.71807" stroke-linecap="round" stroke-linejoin="round"/>
<path d="M833.314 501.447V472.549C833.314 471.858 833.039 471.194 832.55 470.705C832.061 470.216 831.398 469.941 830.706 469.941H830.628C829.936 469.941 829.273 470.216 828.784 470.705C828.295 471.194 828.02 471.858 828.02 472.549V472.549C828.02 472.892 828.087 473.231 828.219 473.547C828.35 473.864 828.542 474.151 828.784 474.393C829.026 474.635 829.313 474.827 829.63 474.958C829.946 475.089 830.285 475.157 830.628 475.157H844.507C844.85 475.157 845.189 475.089 845.505 474.958C845.821 474.827 846.109 474.635 846.351 474.393C846.593 474.151 846.785 473.864 846.916 473.547C847.047 473.231 847.115 472.892 847.115 472.549V472.549C847.115 471.858 846.84 471.194 846.351 470.705C845.862 470.216 845.199 469.941 844.507 469.941H844.279C843.587 469.941 842.924 470.216 842.435 470.705C841.946 471.194 841.671 471.858 841.671 472.549V501.447" stroke="white" stroke-width="3.71807" stroke-linecap="round" stroke-linejoin="round"/>
<path d="M837.599 431.197V437.657" stroke="white" stroke-width="3.71807" stroke-linecap="round" stroke-linejoin="round"/>
<path d="M814.312 437.42L817.542 443.015" stroke="white" stroke-width="3.71807" stroke-linecap="round" stroke-linejoin="round"/>
<path d="M797.257 454.452L802.851 457.682" stroke="white" stroke-width="3.71807" stroke-linecap="round" stroke-linejoin="round"/>
<path d="M877.91 454.508L872.315 457.738" stroke="white" stroke-width="3.71807" stroke-linecap="round" stroke-linejoin="round"/>
<path d="M860.878 437.451L857.648 443.046" stroke="white" stroke-width="3.71807" stroke-linecap="round" stroke-linejoin="round"/>
<defs>
<linearGradient id="paint0_linear" x1="496.615" y1="365.174" x2="550.947" y2="1106.82" gradientUnits="userSpaceOnUse">
<stop stop-color="white"/>
<stop offset="1" stop-color="#94B9FF"/>
</linearGradient>
</defs>
</svg>
