<svg width="1080" height="1080" viewBox="0 0 1080 1080" fill="none" xmlns="http://www.w3.org/2000/svg">
<rect width="1080" height="1080" fill="white"/>
<path opacity="0.7" d="M420.285 387.212C455.452 417.204 548.195 485.588 665.983 488.855C668.392 488.927 670.677 489.936 672.354 491.667C674.031 493.397 674.967 495.714 674.964 498.124V684.757C674.965 687.138 674.051 689.428 672.41 691.153C670.769 692.878 668.527 693.906 666.149 694.024C630.735 695.786 496.442 695.581 407.458 600.312C405.871 598.601 404.993 596.351 405 594.018V394.28C404.999 392.509 405.505 390.774 406.459 389.281C407.413 387.789 408.774 386.6 410.382 385.857C411.989 385.113 413.777 384.845 415.532 385.086C417.287 385.326 418.936 386.063 420.285 387.212Z" fill="#FEBB94"/>
<path d="M433.625 442.21C433.625 442.21 461.376 469.175 499.307 485.925" stroke="white" stroke-width="7.4328" stroke-miterlimit="10" stroke-linecap="round"/>
<path opacity="0.4" d="M433.625 474.901C433.625 474.901 472.246 510.925 522.488 524.302" stroke="white" stroke-width="7.4328" stroke-miterlimit="10" stroke-linecap="round"/>
<path d="M427.872 594.439V516.484L455.203 536.042V615.881L427.872 594.439Z" fill="white"/>
<path d="M474.003 625.939V570.396L501.334 586.741V641.648L474.003 625.939Z" fill="white"/>
<path d="M590.871 669.42V613.877L563.54 610.136V665.043L590.871 669.42Z" fill="white"/>
<path d="M635.764 671.798V574.552H608.433V671.163L635.764 671.798Z" fill="white"/>
<path d="M518.772 650.275V624.881L546.103 632.567V660.173L518.772 650.275Z" fill="white"/>
</svg>
