<svg width="1080" height="1080" viewBox="0 0 1080 1080" fill="none" xmlns="http://www.w3.org/2000/svg">
<rect width="1080" height="1080" fill="white"/>
<path d="M603.105 441.393H609.105" stroke="#5CA4E6" stroke-miterlimit="10"/>
<path d="M712.932 410H367.287C357.187 410 349 418.187 349 428.287V651.031C349 661.131 357.187 669.318 367.287 669.318H712.932C723.032 669.318 731.219 661.131 731.219 651.031V428.287C731.219 418.187 723.032 410 712.932 410Z" fill="url(#paint0_linear)"/>
<path d="M700.84 603.646H508.824C505.646 603.646 503.069 606.223 503.069 609.401V635.368C503.069 638.546 505.646 641.122 508.824 641.122H700.84C704.018 641.122 706.594 638.546 706.594 635.368V609.401C706.594 606.223 704.018 603.646 700.84 603.646Z" fill="white"/>
<path d="M641.368 619.813V618.32H644.749V631.323H643.095V619.813H641.368ZM647.524 621.594C647.608 620.49 648.034 619.627 648.801 619.004C649.569 618.38 650.564 618.069 651.787 618.069C652.602 618.069 653.303 618.218 653.891 618.518C654.49 618.806 654.94 619.202 655.24 619.705C655.552 620.209 655.707 620.778 655.707 621.414C655.707 622.157 655.492 622.798 655.06 623.338C654.64 623.878 654.089 624.225 653.405 624.381V624.471C654.185 624.663 654.802 625.041 655.258 625.604C655.713 626.168 655.941 626.905 655.941 627.816C655.941 628.5 655.785 629.117 655.474 629.669C655.162 630.208 654.694 630.634 654.071 630.946C653.447 631.257 652.698 631.413 651.823 631.413C650.552 631.413 649.509 631.083 648.693 630.424C647.878 629.753 647.422 628.805 647.327 627.582H648.909C648.993 628.302 649.287 628.889 649.79 629.345C650.294 629.801 650.965 630.028 651.805 630.028C652.644 630.028 653.279 629.813 653.711 629.381C654.155 628.937 654.377 628.368 654.377 627.672C654.377 626.773 654.077 626.126 653.477 625.73C652.878 625.334 651.973 625.137 650.762 625.137H650.348V623.77H650.78C651.883 623.758 652.716 623.578 653.279 623.23C653.843 622.87 654.125 622.319 654.125 621.576C654.125 620.94 653.915 620.431 653.495 620.047C653.088 619.663 652.5 619.471 651.733 619.471C650.989 619.471 650.39 619.663 649.934 620.047C649.479 620.431 649.209 620.946 649.125 621.594H647.524ZM657.953 630.01C659.476 628.787 660.669 627.786 661.532 627.007C662.395 626.216 663.121 625.394 663.708 624.543C664.308 623.68 664.607 622.834 664.607 622.007C664.607 621.228 664.416 620.616 664.032 620.173C663.66 619.717 663.055 619.489 662.215 619.489C661.4 619.489 660.765 619.747 660.309 620.263C659.865 620.766 659.626 621.444 659.59 622.295H658.007C658.055 620.952 658.463 619.915 659.23 619.184C659.997 618.452 660.987 618.087 662.197 618.087C663.432 618.087 664.41 618.428 665.129 619.112C665.86 619.795 666.226 620.736 666.226 621.935C666.226 622.93 665.926 623.902 665.327 624.849C664.739 625.784 664.068 626.611 663.313 627.331C662.557 628.038 661.592 628.865 660.417 629.813H666.604V631.179H657.953V630.01Z" fill="#1C85E8"/>
<path d="M476.166 437.465H375.539C371.766 437.465 368.707 440.524 368.707 444.297V634.289C368.707 638.063 371.766 641.122 375.539 641.122H476.166C479.939 641.122 482.998 638.063 482.998 634.289V444.297C482.998 440.524 479.939 437.465 476.166 437.465Z" fill="#1C85E8"/>
<path opacity="0.4" d="M425.853 572.717C441.77 572.717 454.674 559.813 454.674 543.896C454.674 527.978 441.77 515.074 425.853 515.074C409.935 515.074 397.031 527.978 397.031 543.896C397.031 559.813 409.935 572.717 425.853 572.717Z" fill="white"/>
<path d="M416.936 535.961V554.253C416.936 554.761 417.068 555.259 417.319 555.7C417.57 556.14 417.932 556.508 418.368 556.767C418.804 557.025 419.3 557.166 419.807 557.175C420.314 557.183 420.815 557.06 421.26 556.817L437.981 547.67C438.441 547.419 438.825 547.048 439.092 546.597C439.36 546.146 439.501 545.631 439.501 545.107C439.501 544.583 439.36 544.068 439.092 543.617C438.825 543.166 438.441 542.795 437.981 542.544L421.26 533.397C420.815 533.154 420.314 533.031 419.807 533.04C419.3 533.048 418.804 533.189 418.368 533.447C417.932 533.706 417.57 534.074 417.319 534.514C417.068 534.955 416.936 535.453 416.936 535.961Z" fill="white"/>
<path d="M508.232 461.926H580.118" stroke="white" stroke-width="16.3488" stroke-miterlimit="10" stroke-linecap="round"/>
<path opacity="0.4" d="M508.232 495.475H656.791" stroke="white" stroke-width="16.3488" stroke-miterlimit="10" stroke-linecap="round"/>
<path d="M509.118 539.941H581.004" stroke="white" stroke-width="16.3488" stroke-miterlimit="10" stroke-linecap="round"/>
<path opacity="0.4" d="M509.118 573.49H657.677" stroke="white" stroke-width="16.3488" stroke-miterlimit="10" stroke-linecap="round"/>
<path d="M535.175 615.976C534.05 614.937 532.575 614.359 531.044 614.359C529.512 614.359 528.037 614.937 526.912 615.976L525.355 617.413L523.798 615.976C522.673 614.937 521.198 614.359 519.666 614.359C518.135 614.359 516.659 614.937 515.534 615.976C514.94 616.514 514.466 617.17 514.141 617.902C513.816 618.634 513.648 619.427 513.648 620.228C513.648 621.029 513.816 621.821 514.141 622.553C514.466 623.286 514.94 623.942 515.534 624.479L525.355 633.581L535.175 624.599C535.795 624.065 536.293 623.403 536.634 622.659C536.975 621.915 537.151 621.106 537.151 620.288C537.151 619.469 536.975 618.66 536.634 617.916C536.293 617.172 535.795 616.51 535.175 615.976Z" fill="#F4608A"/>
<path d="M546.14 621.594C546.224 620.49 546.65 619.627 547.417 619.004C548.184 618.38 549.18 618.069 550.402 618.069C551.218 618.069 551.919 618.218 552.507 618.518C553.106 618.806 553.556 619.202 553.856 619.705C554.167 620.209 554.323 620.778 554.323 621.414C554.323 622.157 554.107 622.798 553.676 623.338C553.256 623.878 552.705 624.225 552.021 624.381V624.471C552.8 624.663 553.418 625.041 553.874 625.604C554.329 626.168 554.557 626.905 554.557 627.816C554.557 628.5 554.401 629.117 554.089 629.669C553.778 630.208 553.31 630.634 552.687 630.946C552.063 631.257 551.314 631.413 550.438 631.413C549.168 631.413 548.124 631.083 547.309 630.424C546.494 629.753 546.038 628.805 545.942 627.582H547.525C547.609 628.302 547.903 628.889 548.406 629.345C548.91 629.801 549.581 630.028 550.42 630.028C551.26 630.028 551.895 629.813 552.327 629.381C552.77 628.937 552.992 628.368 552.992 627.672C552.992 626.773 552.693 626.126 552.093 625.73C551.494 625.334 550.588 625.137 549.377 625.137H548.964V623.77H549.395C550.498 623.758 551.332 623.578 551.895 623.23C552.459 622.87 552.74 622.319 552.74 621.576C552.74 620.94 552.531 620.431 552.111 620.047C551.703 619.663 551.116 619.471 550.349 619.471C549.605 619.471 549.006 619.663 548.55 620.047C548.094 620.431 547.825 620.946 547.741 621.594H546.14ZM558.727 629.057L556.713 633.895H555.616L556.929 629.057H558.727ZM568.623 619.741H562.31V623.842C562.586 623.458 562.994 623.146 563.533 622.906C564.073 622.655 564.654 622.529 565.278 622.529C566.273 622.529 567.082 622.739 567.706 623.158C568.329 623.566 568.773 624.099 569.037 624.759C569.312 625.406 569.45 626.096 569.45 626.827C569.45 627.69 569.288 628.464 568.965 629.147C568.641 629.831 568.143 630.37 567.472 630.766C566.812 631.161 565.991 631.359 565.008 631.359C563.749 631.359 562.73 631.035 561.951 630.388C561.171 629.741 560.698 628.877 560.53 627.798H562.13C562.286 628.482 562.616 629.015 563.12 629.399C563.623 629.783 564.259 629.974 565.026 629.974C565.973 629.974 566.687 629.693 567.166 629.129C567.646 628.554 567.886 627.798 567.886 626.863C567.886 625.928 567.646 625.208 567.166 624.705C566.687 624.189 565.979 623.932 565.044 623.932C564.409 623.932 563.851 624.087 563.371 624.399C562.904 624.699 562.562 625.113 562.346 625.64H560.8V618.302H568.623V619.741ZM571.427 630.01C572.95 628.787 574.143 627.786 575.006 627.007C575.87 626.216 576.595 625.394 577.182 624.543C577.782 623.68 578.082 622.834 578.082 622.007C578.082 621.228 577.89 620.616 577.506 620.173C577.134 619.717 576.529 619.489 575.69 619.489C574.874 619.489 574.239 619.747 573.783 620.263C573.34 620.766 573.1 621.444 573.064 622.295H571.481C571.529 620.952 571.937 619.915 572.704 619.184C573.472 618.452 574.461 618.087 575.672 618.087C576.907 618.087 577.884 618.428 578.603 619.112C579.335 619.795 579.7 620.736 579.7 621.935C579.7 622.93 579.401 623.902 578.801 624.849C578.214 625.784 577.542 626.611 576.787 627.331C576.031 628.038 575.066 628.865 573.891 629.813H580.078V631.179H571.427V630.01ZM589.973 619.597L584.973 631.323H583.319L588.39 619.759H581.448V618.356H589.973V619.597Z" fill="#1C85E8"/>
<path d="M634.032 622.403C634.032 616.886 627.495 612.414 619.432 612.414C611.368 612.414 604.832 616.886 604.832 622.403C604.832 627.92 611.368 632.393 619.432 632.393C620.009 632.393 620.574 632.362 621.133 632.315C621.218 632.308 621.305 632.32 621.385 632.351C621.466 632.382 621.538 632.43 621.597 632.493C622.633 633.578 624.907 635.258 629.215 635.523C629.322 635.531 629.43 635.508 629.526 635.458C629.621 635.407 629.701 635.332 629.757 635.239C629.812 635.146 629.841 635.04 629.839 634.932C629.838 634.824 629.807 634.718 629.75 634.627C628.997 633.503 628.41 632.277 628.005 630.987C627.972 630.858 627.984 630.722 628.039 630.602C628.094 630.481 628.189 630.383 628.308 630.324C631.784 628.499 634.032 625.633 634.032 622.403Z" fill="#1C85E8"/>
<defs>
<linearGradient id="paint0_linear" x1="495.861" y1="327.491" x2="555.105" y2="964.163" gradientUnits="userSpaceOnUse">
<stop stop-color="white"/>
<stop offset="1" stop-color="#94B9FF"/>
</linearGradient>
</defs>
</svg>
