<svg width="1080" height="1080" viewBox="0 0 1080 1080" fill="none" xmlns="http://www.w3.org/2000/svg">
<rect width="1080" height="1080" fill="white"/>
<path d="M591.386 472H489.44C482.569 472 477 477.569 477 484.44V594.814C477 601.685 482.569 607.254 489.44 607.254H591.386C598.256 607.254 603.825 601.685 603.825 594.814V484.44C603.825 477.569 598.256 472 591.386 472Z" fill="#1C85E8"/>
<path d="M492.449 573.665H525.131" stroke="white" stroke-width="7.4328" stroke-miterlimit="10" stroke-linecap="round"/>
<path opacity="0.4" d="M492.449 588.918H559.99" stroke="white" stroke-width="7.4328" stroke-miterlimit="10" stroke-linecap="round"/>
<path d="M493.172 510.346H510.073C511.315 510.346 512.535 510.671 513.613 511.289C514.69 511.907 515.586 512.796 516.213 513.868L532.576 541.852C533.219 542.952 534.146 543.859 535.259 544.478C536.373 545.097 537.633 545.406 538.906 545.372C540.18 545.338 541.421 544.962 542.5 544.284C543.579 543.606 544.456 542.651 545.039 541.518L555.155 521.871C555.747 520.721 556.641 519.754 557.742 519.075C558.843 518.395 560.108 518.029 561.402 518.015L591.087 517.697" stroke="white" stroke-width="4" stroke-miterlimit="10" stroke-linecap="round"/>
<path opacity="0.4" d="M493.172 540.447H501.484C503.362 540.447 505.163 539.704 506.496 538.381L544.92 500.22C546.252 498.897 548.054 498.154 549.932 498.154H561.182C562.789 498.154 564.349 498.698 565.607 499.698C566.865 500.698 567.748 502.094 568.111 503.659L574.015 529.108C574.378 530.674 575.261 532.07 576.519 533.07C577.777 534.069 579.337 534.613 580.944 534.613H591.087" stroke="white" stroke-width="4" stroke-miterlimit="10" stroke-linecap="round"/>
</svg>
