<svg width="1080" height="1080" viewBox="0 0 1080 1080" fill="none" xmlns="http://www.w3.org/2000/svg">
<rect width="1080" height="1080" fill="white"/>
<path opacity="0.7" d="M483.867 581.217H596.764C598.979 581.217 601.172 580.781 603.219 579.933C605.265 579.086 607.125 577.843 608.691 576.277C610.257 574.711 611.499 572.851 612.347 570.805C613.195 568.759 613.631 566.565 613.631 564.35V529.423C613.631 527.208 613.195 525.014 612.347 522.968C611.499 520.922 610.257 519.062 608.691 517.496C607.125 515.93 605.265 514.687 603.219 513.84C601.172 512.992 598.979 512.556 596.764 512.556H556.687L544.86 500.729C543.753 499.622 542.251 499 540.685 499C539.12 499 537.618 499.622 536.511 500.729L524.684 512.556H483.867C479.393 512.556 475.103 514.333 471.94 517.496C468.777 520.659 467 524.949 467 529.423V564.35C467 568.824 468.777 573.114 471.94 576.277C475.103 579.44 479.393 581.217 483.867 581.217Z" fill="#1C85E8"/>
<path d="M537.052 555.472C539.091 553.834 540.689 552.493 541.846 551.449C543.002 550.389 543.973 549.289 544.76 548.149C545.563 546.993 545.965 545.86 545.965 544.752C545.965 543.708 545.708 542.889 545.194 542.295C544.696 541.685 543.885 541.38 542.761 541.38C541.669 541.38 540.818 541.725 540.207 542.416C539.613 543.09 539.292 543.998 539.244 545.138H537.124C537.188 543.339 537.734 541.95 538.762 540.97C539.79 539.991 541.115 539.501 542.737 539.501C544.391 539.501 545.7 539.959 546.663 540.874C547.643 541.789 548.133 543.05 548.133 544.656C548.133 545.989 547.731 547.29 546.928 548.558C546.141 549.811 545.242 550.919 544.23 551.883C543.219 552.83 541.926 553.938 540.352 555.207H548.639V557.038H537.052V555.472ZM550.643 553.352V551.69L559.098 539.983H561.724V551.449H564.133V553.352H561.724V557.23H559.556V553.352H550.643ZM559.652 542.271L553.172 551.449H559.652V542.271ZM566.274 544.198C566.387 542.721 566.957 541.565 567.985 540.729C569.012 539.894 570.345 539.477 571.983 539.477C573.075 539.477 574.015 539.678 574.802 540.079C575.605 540.464 576.207 540.994 576.609 541.669C577.026 542.343 577.235 543.106 577.235 543.957C577.235 544.953 576.946 545.812 576.368 546.535C575.806 547.258 575.067 547.723 574.151 547.932V548.053C575.195 548.309 576.022 548.815 576.633 549.57C577.243 550.325 577.548 551.313 577.548 552.533C577.548 553.448 577.339 554.276 576.922 555.014C576.504 555.737 575.878 556.307 575.043 556.725C574.208 557.142 573.204 557.351 572.032 557.351C570.329 557.351 568.932 556.909 567.84 556.026C566.748 555.127 566.138 553.858 566.009 552.22H568.129C568.242 553.183 568.635 553.97 569.31 554.581C569.984 555.191 570.883 555.496 572.008 555.496C573.132 555.496 573.983 555.207 574.561 554.629C575.155 554.035 575.452 553.272 575.452 552.34C575.452 551.136 575.051 550.269 574.248 549.739C573.445 549.209 572.232 548.944 570.61 548.944H570.056V547.113H570.634C572.112 547.097 573.228 546.856 573.983 546.39C574.738 545.909 575.115 545.17 575.115 544.174C575.115 543.323 574.834 542.641 574.272 542.127C573.726 541.613 572.939 541.356 571.911 541.356C570.915 541.356 570.113 541.613 569.502 542.127C568.892 542.641 568.531 543.331 568.418 544.198H566.274ZM590.216 543.957C589.862 542.175 588.762 541.283 586.915 541.283C585.486 541.283 584.418 541.838 583.712 542.946C583.005 544.038 582.66 545.844 582.676 548.366C583.045 547.531 583.655 546.88 584.507 546.414C585.374 545.933 586.337 545.692 587.397 545.692C589.051 545.692 590.368 546.206 591.348 547.233C592.344 548.261 592.841 549.683 592.841 551.497C592.841 552.589 592.625 553.569 592.191 554.436C591.773 555.303 591.131 555.994 590.264 556.508C589.413 557.022 588.377 557.279 587.156 557.279C585.502 557.279 584.209 556.909 583.278 556.171C582.347 555.432 581.696 554.412 581.327 553.111C580.957 551.81 580.773 550.204 580.773 548.293C580.773 542.4 582.828 539.453 586.94 539.453C588.513 539.453 589.75 539.878 590.649 540.729C591.549 541.581 592.079 542.657 592.239 543.957H590.216ZM586.94 547.547C586.249 547.547 585.599 547.691 584.988 547.98C584.378 548.253 583.88 548.679 583.495 549.257C583.125 549.819 582.941 550.51 582.941 551.329C582.941 552.549 583.294 553.545 584.001 554.316C584.707 555.07 585.719 555.448 587.036 555.448C588.16 555.448 589.051 555.103 589.71 554.412C590.384 553.705 590.722 552.758 590.722 551.57C590.722 550.317 590.4 549.337 589.758 548.631C589.116 547.908 588.176 547.547 586.94 547.547Z" fill="white"/>
<path d="M489.053 560.754H492.751C493.438 560.753 494.096 560.48 494.581 559.994C495.067 559.509 495.34 558.851 495.341 558.164V541.15C495.34 540.463 495.067 539.805 494.581 539.32C494.096 538.834 493.438 538.561 492.751 538.561H489.053C488.366 538.561 487.708 538.834 487.223 539.32C486.737 539.805 486.464 540.463 486.463 541.15V558.164C486.464 558.851 486.737 559.509 487.223 559.994C487.708 560.48 488.366 560.753 489.053 560.754V560.754Z" fill="white"/>
<path d="M505.374 527.834C503.894 527.834 503.154 528.574 503.154 532.273C503.154 535.788 499.75 538.617 497.56 540.074V558.403C499.929 559.499 504.671 561.124 512.031 561.124H514.399C515.794 561.125 517.145 560.633 518.212 559.733C519.278 558.834 519.993 557.587 520.228 556.212L521.885 546.595C522.032 545.745 521.992 544.873 521.767 544.041C521.542 543.209 521.137 542.436 520.582 541.776C520.026 541.116 519.334 540.586 518.552 540.222C517.77 539.859 516.918 539.67 516.056 539.67H509.072C509.858 537.799 510.237 535.781 510.182 533.752C510.182 529.314 506.853 527.834 505.374 527.834V527.834Z" fill="white"/>
</svg>
