<svg width="1080" height="1080" viewBox="0 0 1080 1080" fill="none" xmlns="http://www.w3.org/2000/svg">
<rect width="1080" height="1080" fill="white"/>
<path d="M612.066 509H468.76C465.026 509 462 512.026 462 515.76V563.625C462 567.358 465.026 570.384 468.76 570.384H612.066C615.799 570.384 618.825 567.358 618.825 563.625V515.76C618.825 512.026 615.799 509 612.066 509Z" fill="#FEBB94"/>
<path d="M530.032 552.627C528.884 552.627 527.852 552.43 526.934 552.037C526.016 551.627 525.295 551.054 524.77 550.316C524.246 549.578 523.983 548.718 523.983 547.734H526.983C527.049 548.472 527.335 549.078 527.844 549.554C528.368 550.029 529.098 550.267 530.032 550.267C530.999 550.267 531.753 550.037 532.294 549.578C532.835 549.103 533.105 548.496 533.105 547.759C533.105 547.185 532.933 546.718 532.589 546.357C532.261 545.997 531.843 545.718 531.335 545.521C530.843 545.325 530.155 545.111 529.27 544.882C528.155 544.587 527.245 544.292 526.54 543.997C525.852 543.685 525.262 543.21 524.77 542.571C524.278 541.931 524.032 541.079 524.032 540.014C524.032 539.03 524.278 538.169 524.77 537.432C525.262 536.694 525.95 536.129 526.835 535.735C527.721 535.342 528.745 535.145 529.909 535.145C531.565 535.145 532.917 535.563 533.966 536.399C535.031 537.219 535.622 538.35 535.736 539.792H532.638C532.589 539.169 532.294 538.637 531.753 538.194C531.212 537.751 530.499 537.53 529.614 537.53C528.811 537.53 528.155 537.735 527.647 538.145C527.139 538.555 526.885 539.145 526.885 539.915C526.885 540.44 527.04 540.874 527.352 541.218C527.68 541.546 528.089 541.809 528.581 542.005C529.073 542.202 529.745 542.415 530.597 542.644C531.728 542.956 532.646 543.267 533.351 543.579C534.072 543.89 534.679 544.374 535.171 545.03C535.679 545.669 535.933 546.529 535.933 547.611C535.933 548.48 535.695 549.3 535.22 550.07C534.761 550.84 534.081 551.463 533.179 551.939C532.294 552.398 531.245 552.627 530.032 552.627ZM546.248 538.686C547.281 538.686 548.199 538.907 549.002 539.35C549.821 539.792 550.461 540.448 550.92 541.317C551.395 542.186 551.633 543.235 551.633 544.464V552.455H548.854V544.882C548.854 543.669 548.551 542.743 547.945 542.104C547.338 541.448 546.51 541.12 545.461 541.12C544.412 541.12 543.576 541.448 542.953 542.104C542.347 542.743 542.043 543.669 542.043 544.882V552.455H539.24V534.26H542.043V540.481C542.519 539.907 543.117 539.464 543.838 539.153C544.576 538.842 545.379 538.686 546.248 538.686ZM554.274 545.62C554.274 544.259 554.552 543.054 555.11 542.005C555.684 540.956 556.454 540.145 557.421 539.571C558.405 538.981 559.486 538.686 560.667 538.686C561.732 538.686 562.658 538.899 563.445 539.325C564.248 539.735 564.888 540.251 565.363 540.874V538.907H568.191V552.455H565.363V550.439C564.888 551.078 564.24 551.611 563.421 552.037C562.601 552.463 561.667 552.676 560.618 552.676C559.454 552.676 558.388 552.381 557.421 551.791C556.454 551.185 555.684 550.349 555.11 549.283C554.552 548.201 554.274 546.98 554.274 545.62ZM565.363 545.669C565.363 544.734 565.166 543.923 564.773 543.235C564.396 542.546 563.896 542.022 563.273 541.661C562.65 541.3 561.978 541.12 561.257 541.12C560.536 541.12 559.863 541.3 559.241 541.661C558.618 542.005 558.11 542.522 557.716 543.21C557.339 543.882 557.151 544.685 557.151 545.62C557.151 546.554 557.339 547.374 557.716 548.078C558.11 548.783 558.618 549.324 559.241 549.701C559.88 550.062 560.552 550.242 561.257 550.242C561.978 550.242 562.65 550.062 563.273 549.701C563.896 549.341 564.396 548.816 564.773 548.128C565.166 547.423 565.363 546.603 565.363 545.669ZM574.675 540.874C575.085 540.186 575.626 539.653 576.298 539.276C576.987 538.883 577.798 538.686 578.732 538.686V541.587H578.019C576.921 541.587 576.085 541.866 575.511 542.423C574.954 542.981 574.675 543.948 574.675 545.325V552.455H571.872V538.907H574.675V540.874ZM593.726 545.349C593.726 545.857 593.693 546.316 593.627 546.726H583.276C583.358 547.808 583.759 548.677 584.481 549.332C585.202 549.988 586.087 550.316 587.136 550.316C588.644 550.316 589.71 549.685 590.333 548.423H593.357C592.947 549.668 592.201 550.693 591.119 551.496C590.054 552.283 588.726 552.676 587.136 552.676C585.841 552.676 584.677 552.39 583.645 551.816C582.628 551.226 581.825 550.406 581.235 549.357C580.661 548.292 580.374 547.062 580.374 545.669C580.374 544.275 580.653 543.054 581.21 542.005C581.784 540.94 582.579 540.12 583.596 539.546C584.628 538.973 585.808 538.686 587.136 538.686C588.415 538.686 589.554 538.964 590.554 539.522C591.554 540.079 592.332 540.866 592.89 541.882C593.447 542.882 593.726 544.038 593.726 545.349ZM590.8 544.464C590.783 543.431 590.415 542.604 589.693 541.981C588.972 541.358 588.079 541.046 587.013 541.046C586.046 541.046 585.218 541.358 584.53 541.981C583.841 542.587 583.432 543.415 583.3 544.464H590.8Z" fill="white"/>
<path d="M503.402 543.98C502.432 543.98 501.475 544.194 500.598 544.606C499.721 545.019 498.946 545.62 498.328 546.367L490.452 541.896C490.958 540.471 490.958 538.915 490.452 537.491L498.327 533.018C499.38 534.285 500.868 535.111 502.5 535.335C504.132 535.559 505.788 535.163 507.142 534.226C508.497 533.289 509.451 531.879 509.817 530.273C510.183 528.667 509.935 526.983 509.121 525.551C508.306 524.12 506.985 523.045 505.418 522.539C503.851 522.033 502.151 522.133 500.653 522.818C499.156 523.503 497.969 524.725 497.328 526.241C496.686 527.758 496.635 529.46 497.186 531.012L489.311 535.485C488.445 534.44 487.278 533.688 485.969 533.331C484.66 532.974 483.273 533.029 481.996 533.489C480.72 533.949 479.617 534.792 478.837 535.902C478.057 537.012 477.638 538.336 477.638 539.693C477.638 541.049 478.057 542.373 478.837 543.484C479.616 544.594 480.72 545.436 481.996 545.897C483.273 546.357 484.66 546.412 485.969 546.055C487.278 545.698 488.445 544.946 489.31 543.901L497.186 548.373C496.719 549.692 496.684 551.126 497.086 552.467C497.488 553.808 498.306 554.986 499.422 555.831C500.538 556.676 501.895 557.144 503.294 557.167C504.694 557.19 506.064 556.766 507.208 555.958C508.351 555.151 509.207 554 509.653 552.673C510.098 551.346 510.11 549.911 509.686 548.577C509.262 547.243 508.425 546.078 507.295 545.252C506.165 544.425 504.802 543.98 503.402 543.98ZM503.402 524.522C504.25 524.522 505.079 524.773 505.784 525.245C506.49 525.716 507.039 526.385 507.364 527.169C507.689 527.953 507.774 528.815 507.608 529.647C507.443 530.479 507.034 531.243 506.435 531.842C505.835 532.442 505.071 532.85 504.239 533.016C503.407 533.181 502.545 533.096 501.761 532.772C500.977 532.447 500.308 531.897 499.837 531.192C499.366 530.486 499.114 529.657 499.115 528.809C499.116 527.673 499.568 526.583 500.372 525.779C501.175 524.975 502.265 524.523 503.402 524.522ZM484.238 543.98C483.39 543.98 482.561 543.729 481.856 543.258C481.151 542.787 480.601 542.117 480.277 541.334C479.952 540.551 479.867 539.689 480.032 538.857C480.198 538.025 480.606 537.261 481.205 536.662C481.805 536.062 482.569 535.654 483.401 535.488C484.232 535.323 485.094 535.408 485.878 535.732C486.661 536.057 487.33 536.606 487.802 537.311C488.273 538.016 488.524 538.845 488.524 539.693C488.523 540.829 488.071 541.919 487.267 542.723C486.464 543.526 485.374 543.978 484.238 543.98H484.238ZM503.402 554.863C502.554 554.863 501.725 554.612 501.019 554.141C500.314 553.67 499.764 553 499.44 552.217C499.115 551.433 499.03 550.571 499.195 549.739C499.361 548.907 499.769 548.143 500.369 547.544C500.968 546.944 501.732 546.535 502.564 546.37C503.396 546.205 504.258 546.289 505.042 546.614C505.825 546.939 506.495 547.488 506.966 548.194C507.437 548.899 507.688 549.728 507.688 550.576C507.687 551.713 507.235 552.802 506.431 553.606C505.628 554.409 504.538 554.862 503.402 554.863Z" fill="white"/>
</svg>
