<svg width="1080" height="1080" viewBox="0 0 1080 1080" fill="none" xmlns="http://www.w3.org/2000/svg">
<rect width="1080" height="1080" fill="white"/>
<path opacity="0.6" d="M438.905 576.604H449.673" stroke="white" stroke-width="6" stroke-miterlimit="10" stroke-linecap="round"/>
<path d="M717.058 764.392C716.836 764.416 716.737 764.539 716.86 764.638C716.761 764.76 716.761 764.76 716.786 764.982C716.319 766.506 715.99 768.069 715.801 769.652L734.763 784.891L736.861 782.532C736.861 782.532 729.864 773.875 727.235 771.358C726.105 770.247 725.097 769.236 724.09 768.224C723.206 767.311 722.421 766.275 721.659 765.461C720.604 764.006 717.525 764.565 717.501 764.343C717.378 764.245 717.058 764.392 717.058 764.392Z" fill="#233B62"/>
<path d="M573.693 631.981L591.995 649.725L694.368 748.584L696.236 750.287L697.045 751.545L697.168 751.643L711.669 773.613L713.289 776.127L713.828 776.966L723.643 791.933L715.559 795.953L713.217 797.105L709.915 798.697L704.714 801.394L704.615 801.516L699.094 804.36L698.824 803.941L686.222 779.858C683.777 775.207 680.35 771.142 676.179 767.944L564.863 682.73L543.701 666.531L573.693 631.981Z" fill="#FFCCB3"/>
<path d="M710.265 752.46C705.358 750.182 699.85 748.144 694.467 748.461C697.713 751.304 699.191 756.362 701.335 760.048C705.748 767.638 717.059 781.741 711.28 793.727C708.033 800.462 698.947 804.04 698.824 803.941C697.304 810.857 689.768 839.012 704.789 822.691C713.177 813.577 721.499 803.841 725.683 794.178C727.398 790.216 723.77 786.263 721.99 782.918C719.712 777.856 716.305 771.152 716.735 765.549L716.834 765.426C717.081 765.038 736.531 782.451 736.861 782.533C737.528 781.45 739.084 779.263 739.084 779.263C739.084 779.263 711.199 752.807 710.265 752.46Z" fill="#1C85E8"/>
<path d="M500.799 844.556C500.624 844.418 500.467 844.437 500.486 844.594C500.33 844.613 500.33 844.613 500.192 844.788C498.793 845.551 497.464 846.438 496.222 847.437L499.12 871.591L502.269 871.372C502.269 871.372 503.322 860.29 503.203 856.653C503.172 855.069 503.159 853.641 503.147 852.214C503.153 850.943 503.316 849.653 503.341 848.538C503.604 846.76 501.012 845.007 501.15 844.832C501.131 844.675 500.799 844.556 500.799 844.556Z" fill="#233B62"/>
<path d="M490.914 649.65L491.589 675.133L495.634 817.39L495.779 819.913L495.478 821.378L495.497 821.534L490.499 847.38L489.899 850.31L489.698 851.286L486.248 868.848L477.657 866.068L475.178 865.254L471.704 864.083L466.1 862.374L465.944 862.393L460.008 860.564L460.109 860.076L467.942 834.049C469.447 829.014 469.84 823.711 469.094 818.509L449.114 679.752L445.314 653.374L490.914 649.65Z" fill="#FFCCB3"/>
<path d="M504.287 831.276C502.373 826.217 499.861 820.908 495.791 817.371C496.123 821.672 493.643 826.322 492.597 830.456C490.445 838.967 488.668 856.959 476.155 861.485C469.124 864.028 460.127 860.232 460.108 860.076C454.185 863.957 429.11 878.812 451.26 877.65C463.63 877.001 476.387 875.861 486.135 871.879C490.132 870.247 490.303 864.884 491.369 861.248C493.281 856.037 495.533 848.862 499.759 845.157L499.916 845.138C500.364 845.034 502.09 871.082 502.269 871.372C503.503 871.065 506.145 870.59 506.145 870.59C506.145 870.59 504.712 832.178 504.287 831.276Z" fill="#1C85E8"/>
<path d="M463.333 458.457L427.144 611.277L427.078 622.126L456.505 803.08L503.359 798.008L489.767 625.187L527.044 535.016L519.508 461.07L463.333 458.457Z" fill="#1F2D49"/>
<path d="M458.267 648.396C475.743 648.396 489.911 634.228 489.911 616.752C489.911 599.275 475.743 585.108 458.267 585.108C440.79 585.108 426.623 599.275 426.623 616.752C426.623 634.228 440.79 648.396 458.267 648.396Z" fill="#1F2D49"/>
<path d="M501.644 596.458L492.719 520.953L489.767 625.187L501.644 596.458Z" fill="#0D1B33"/>
<path d="M561.017 457.981C561.017 457.981 577.891 486.326 578.113 510.065C578.445 545.693 565.604 609.575 565.604 609.575L677.784 722.972L651.082 763.02C651.082 763.02 555.349 683.588 514.844 645.86L505.771 627.49L492.719 520.954L512.669 457.981H561.017Z" fill="#1F2D49"/>
<path d="M463.333 458.457L561.598 459.467L571.147 479.229L461.673 465.47L463.333 458.457Z" fill="#0D1B33"/>
<path d="M537.133 655.042C554.609 655.042 568.777 640.875 568.777 623.398C568.777 605.922 554.609 591.754 537.133 591.754C519.656 591.754 505.489 605.922 505.489 623.398C505.489 640.875 519.656 655.042 537.133 655.042Z" fill="#1F2D49"/>
<path d="M451.862 248.457C451.862 248.457 453.181 263.147 449.305 277.266C445.429 291.386 416.083 321.287 442.107 345.65C468.132 370.014 499.97 304.675 499.97 304.675L490.003 274.498L455.537 238.639L451.862 248.457Z" fill="#1F2D49"/>
<path d="M531.263 251.886C531.263 251.886 539.074 261.809 556.864 269.918C574.327 277.878 593.133 290.959 589.257 319.475C585.381 347.992 533.761 325.843 518.596 309.508C503.431 293.174 505.518 264.01 505.518 264.01L531.263 251.886Z" fill="#1F2D49"/>
<path d="M491.341 305.319C491.341 305.319 471.532 313.157 468.507 315.577C465.483 317.996 462.611 337.743 457.469 347.119C452.328 356.495 444.806 373.8 455.792 389.695C466.778 405.59 465.61 418.213 465.61 418.213L463.272 458.087L557.952 459.832C558.786 459.858 559.616 459.707 560.387 459.388C561.158 459.07 561.852 458.592 562.424 457.985C562.997 457.378 563.434 456.656 563.706 455.868C563.979 455.08 564.081 454.243 564.006 453.412C562.954 441.787 558.148 425.46 557.771 406.949C557.259 381.86 556.876 298.032 556.876 298.032L515.631 296.738C507.323 298.17 491.341 305.319 491.341 305.319Z" fill="#FEBB94"/>
<path d="M540.643 332.299C540.643 332.299 526.845 344.88 526.033 354.214C525.222 363.548 523.345 389.573 505.613 392.169C483.877 395.351 478.188 398.449 488.264 400.884C498.34 403.319 521.207 399.374 521.207 409.812C521.207 417.241 530.092 422.799 534.556 418.74C539.02 414.682 574.577 352.997 540.643 332.299Z" fill="#FF967C"/>
<path d="M374.232 342.844L366.752 333.27C365.187 331.028 363.104 329.196 360.681 327.929C357 326.087 351.357 322.649 349.396 319.212C346.146 313.75 333.338 298.998 344.448 287.53C348.561 283.298 347.533 284.299 355.754 284.426C363.975 284.552 365.237 293.083 369.345 298.668C369.345 298.668 370.268 292.226 374.809 289.284C379.351 286.341 376.337 304.315 379.831 311.127C383.324 317.939 380.501 320.515 388.778 332.482L374.232 342.844Z" fill="#FFCCB3"/>
<path d="M354.503 285.409L361.184 300.566L354.503 285.409Z" fill="#E56441"/>
<path d="M354.503 285.409L361.184 300.566" stroke="#E56441" stroke-width="0.94666" stroke-linecap="round"/>
<path d="M345.79 288.104L355.047 304.244L345.79 288.104Z" fill="#E56441"/>
<path d="M345.79 288.104L355.047 304.244" stroke="#E56441" stroke-width="0.94666" stroke-linecap="round"/>
<path d="M340.324 298.716L347.621 308.352L340.324 298.716Z" fill="#E56441"/>
<path d="M340.324 298.716L347.621 308.352" stroke="#E56441" stroke-width="0.94666" stroke-linecap="round"/>
<path d="M367.626 302.103C367.626 302.103 364.799 310.2 365.288 316.581L367.626 302.103Z" fill="#E56441"/>
<path d="M367.626 302.103C367.626 302.103 364.799 310.2 365.288 316.581" stroke="#E56441" stroke-width="0.94666" stroke-linecap="round"/>
<path d="M473.32 312.968C465.64 315.63 454.935 321.029 452.037 327.053L426.44 385.365L383.811 320.592L367.668 337.594L407.479 419.936C414.754 438.042 433.234 444.845 446.62 425.33L468.008 391.738L473.32 312.968Z" fill="#FEBB94"/>
<path d="M462.404 363.166C462.404 363.166 460.096 359.184 460.096 379.966L446.621 425.331L468.008 391.738C485.166 368.67 471.611 362.508 462.404 363.166Z" fill="#FF967C"/>
<path d="M509.332 335.652L438.624 363.816C436.427 364.691 435.356 367.182 436.231 369.379L471.621 458.227C472.496 460.423 474.986 461.495 477.183 460.62L547.891 432.456C550.088 431.58 551.159 429.09 550.284 426.893L514.894 338.045C514.019 335.848 511.529 334.777 509.332 335.652Z" fill="#1C85E8"/>
<path d="M449.413 372.174L478.57 360.56" stroke="white" stroke-width="4" stroke-miterlimit="10" stroke-linecap="round"/>
<path d="M453.816 382.612L467.106 377.318" stroke="white" stroke-width="4" stroke-miterlimit="10" stroke-linecap="round"/>
<path d="M488.834 284.433L489.947 315.601C489.947 315.601 488.423 322.427 495.427 321.669C502.432 320.912 511.863 315.397 517.164 309.338C522.465 303.28 522.103 302.794 519.831 298.819C517.559 294.843 506.893 264.543 506.893 264.543L488.834 284.433Z" fill="#FFCCB3"/>
<path d="M488.993 287.047L501.909 278.822C501.909 278.822 496.186 303.939 489.947 315.601L488.993 287.047Z" fill="#FCBA9F"/>
<path d="M454.168 237.788C454.168 237.788 453.962 268.808 467.345 284.418C476.073 294.598 485.254 293.249 500.569 276.489C514.611 261.122 516.58 253.112 516.58 253.112L506.884 222.68C506.884 222.68 455.745 209.558 454.168 237.788Z" fill="#FFCCB3"/>
<path d="M467.486 230.592C467.486 230.592 473.091 244.206 483.502 248.01C493.913 251.814 496.636 258.887 496.636 258.887C496.636 258.887 498.633 247.248 506.815 247.671C514.997 248.095 513.335 262.54 508.256 267.336C508.256 267.336 514.365 278.666 519.546 287.047L542.232 264.531C542.232 264.531 530.543 251.018 527.973 240.145C525.403 229.272 517.085 200.163 485.374 202.091C448.142 204.355 450.281 234.609 451.862 251.413C451.862 251.413 463.538 246.937 467.486 230.592Z" fill="#1F2D49"/>
<path d="M471.516 274.826L480.566 270.386C480.574 270.438 480.582 270.492 480.589 270.549C480.651 271.024 480.679 271.677 480.549 272.394C480.295 273.798 479.431 275.5 476.859 276.607C475.208 277.142 473.8 276.613 472.767 275.911C472.249 275.559 471.836 275.169 471.553 274.866C471.54 274.852 471.528 274.839 471.516 274.826Z" fill="#E56441" stroke="#E56441"/>
<path d="M461.656 262.229C462.8 261.947 463.39 260.351 462.974 258.665C462.558 256.979 461.293 255.842 460.149 256.124C459.005 256.407 458.415 258.002 458.831 259.688C459.248 261.374 460.512 262.511 461.656 262.229Z" fill="#080B09"/>
<path d="M478.616 258.299C479.76 258.016 480.35 256.421 479.934 254.735C479.517 253.049 478.253 251.911 477.109 252.194C475.965 252.476 475.375 254.072 475.791 255.757C476.207 257.443 477.472 258.581 478.616 258.299Z" fill="#080B09"/>
<path d="M455.076 253.139L463.707 251.158C463.851 251.112 463.973 251.015 464.051 250.886C464.13 250.757 464.158 250.604 464.132 250.455C464.036 250.201 463.89 249.969 463.702 249.774C463.514 249.578 463.288 249.422 463.038 249.316C462.789 249.21 462.52 249.156 462.249 249.157C461.977 249.157 461.709 249.213 461.46 249.32L454.692 252.187C454.128 252.327 454.372 253.313 455.076 253.139Z" fill="#080B09"/>
<path d="M484.056 245.414L472.815 248.937C472.74 248.586 472.739 248.223 472.813 247.871C472.887 247.52 473.033 247.188 473.243 246.897C473.453 246.606 473.721 246.362 474.031 246.18C474.341 245.999 474.686 245.885 475.042 245.845L484.024 244.674C484.305 244.605 484.479 245.31 484.056 245.414Z" fill="#080B09"/>
<path d="M467.709 256.592L466.49 265.693L469.705 267.245" fill="#E56441"/>
<path d="M467.709 256.592L466.49 265.693L469.705 267.245" stroke="#E56441" stroke-width="0.94666" stroke-linecap="round"/>
<path d="M476.266 416.168L448.388 424.166L444.98 441.345L451.323 460.358C451.323 460.358 455.782 457.358 454.852 450.36C453.922 443.362 477.48 443.562 481.797 434.764" fill="#FFCCB3"/>
<path d="M539.948 321.481C539.948 321.481 539.765 297.867 558.683 297.865C571.366 297.863 577.44 303.811 579.057 322.375C580.187 335.355 581.006 406.567 581.006 406.567C581.006 406.567 584.197 439.068 556.631 439.676L477.025 437.291L475.228 415.05L544.621 408.133L539.948 321.481Z" fill="#FEBB94"/>
<path d="M482.384 318.529C482.384 318.529 489.562 316.485 488.398 309.434C487.264 302.495 487.22 296.472 489.497 297.31C489.497 297.31 491.506 300.756 503.999 296.927C516.411 293.241 515.632 288.982 515.632 288.982C515.632 288.982 517.388 287.426 518.7 291.42C520.01 295.415 523.335 306.474 530.364 305.678L532.264 326.293L494.881 338.599C494.799 338.742 477.521 322.004 482.384 318.529Z" fill="#FEBB94"/>
<path d="M426.394 385.344L438.364 403.129L431.981 372.744L426.394 385.344Z" fill="#FF967C"/>
</svg>
