<svg width="1080" height="1080" viewBox="0 0 1080 1080" fill="none" xmlns="http://www.w3.org/2000/svg">
<rect width="1080" height="1080" fill="white"/>
<path d="M792.606 590.787H420.297V853.8H792.606V590.787Z" fill="#5CA4E6"/>
<path d="M569.031 590.787H420.297V853.8H569.031V590.787Z" fill="url(#paint0_linear)"/>
<path d="M545.331 537.229C545.331 537.229 516.691 512.229 493.406 533.474C470.12 554.719 373.914 700.614 373.914 700.614L403.012 720.736L512.142 598.008L531.138 628.584L545.331 537.229Z" fill="#FCBA9F"/>
<path fill-rule="evenodd" clip-rule="evenodd" d="M525.846 816.387C537.842 807.621 550.207 798.585 563.228 795.667C563.521 795.6 563.825 795.598 564.12 795.66C564.414 795.722 564.691 795.848 564.932 796.028C565.173 796.208 565.372 796.438 565.515 796.703C565.658 796.968 565.742 797.26 565.76 797.56L567.187 821.718C567.216 822.216 567.065 822.707 566.76 823.101C566.455 823.496 566.018 823.766 565.529 823.862L476.332 841.492C469.755 842.792 465.537 839.932 463.514 834.853C463.448 834.678 463.434 834.487 463.473 834.304C463.513 834.121 463.604 833.953 463.736 833.82C463.869 833.688 464.037 833.596 464.22 833.557C464.403 833.517 464.594 833.531 464.769 833.597C476.486 837.901 489.422 837.45 500.81 832.338C509.038 828.67 517.349 822.596 525.846 816.387Z" fill="#5661AE"/>
<path fill-rule="evenodd" clip-rule="evenodd" d="M553.219 737.241C553.219 737.241 554.908 775.369 555.798 779.248C556.41 781.368 557.178 783.44 558.094 785.447C559.623 789.092 561.326 793.152 561.482 796.103C549.101 799.402 537.305 808.02 525.847 816.391C517.35 822.599 509.04 828.671 500.811 832.338C489.973 837.202 477.711 837.857 466.416 834.174C464.865 827.584 469.367 820.287 480.724 817C501.08 811.109 512.204 807.375 519.302 790.349C524.346 778.251 515.898 736.129 515.898 736.129L553.219 737.241Z" fill="#FFCCB3"/>
<path fill-rule="evenodd" clip-rule="evenodd" d="M520.194 783.912C524.196 783.666 540.1 782.619 555.326 780.628C558.285 780.242 560.926 785.799 559.662 789.334C558.835 791.915 558.217 794.559 557.815 797.24C552.847 799.056 548.081 801.381 543.592 804.178C544.512 797.879 540.67 795.09 534.962 795.377C530.453 795.605 520.268 798.468 515.017 800.023C514.728 800.108 514.421 800.108 514.133 800.025C513.844 799.941 513.585 799.776 513.386 799.55C513.188 799.324 513.058 799.046 513.013 798.748C512.968 798.451 513.008 798.147 513.13 797.872L518.848 784.853C518.964 784.588 519.151 784.359 519.388 784.193C519.626 784.027 519.904 783.93 520.194 783.912Z" fill="white"/>
<path fill-rule="evenodd" clip-rule="evenodd" d="M478.076 836.422C488.438 837.233 494.706 834.539 494.706 834.539L490.536 813.444L474.323 817.433L478.076 836.422Z" fill="white"/>
<path fill-rule="evenodd" clip-rule="evenodd" d="M348.14 740.227C362.956 741.332 378.228 742.47 390.033 748.691C390.3 748.83 390.533 749.026 390.717 749.264C390.901 749.502 391.03 749.777 391.097 750.071C391.164 750.364 391.166 750.668 391.103 750.963C391.04 751.257 390.914 751.534 390.734 751.774L376.156 771.091C375.856 771.489 375.422 771.764 374.934 771.867C374.447 771.97 373.938 771.892 373.504 771.648L294.167 727.235C288.317 723.96 286.96 719.048 288.713 713.869C288.776 713.693 288.889 713.539 289.038 713.425C289.187 713.311 289.365 713.242 289.552 713.227C289.739 713.212 289.926 713.251 290.091 713.34C290.256 713.428 290.393 713.563 290.483 713.727C296.612 724.601 306.753 732.645 318.737 736.137C327.38 738.68 337.645 739.445 348.14 740.227Z" fill="#5661AE"/>
<path fill-rule="evenodd" clip-rule="evenodd" d="M420.297 697.721L395.023 731.373C394.115 733.384 393.356 735.459 392.752 737.582C391.553 741.348 390.216 745.543 388.422 747.891C376.857 742.374 362.289 741.287 348.138 740.23C337.644 739.447 327.381 738.681 318.738 736.138C307.333 732.813 297.574 725.361 291.363 715.234C294.455 709.211 302.614 706.575 313.391 711.437C332.708 720.151 343.598 724.521 360.04 716.161C362.69 714.601 365.065 712.615 367.069 710.284L392.605 672.676L420.297 697.721Z" fill="#FCBA9F"/>
<path fill-rule="evenodd" clip-rule="evenodd" d="M364.893 711.839C368.1 714.247 380.886 723.762 393.769 732.118C396.272 733.743 394.679 739.686 391.425 741.558C389.122 742.986 386.937 744.598 384.893 746.379C379.934 744.54 374.797 743.22 369.566 742.439C374.351 738.24 373.235 733.625 368.702 730.143C365.123 727.392 355.512 722.968 350.506 720.747C350.231 720.625 349.997 720.426 349.832 720.175C349.666 719.924 349.576 719.631 349.571 719.33C349.567 719.029 349.649 718.733 349.807 718.478C349.965 718.222 350.193 718.017 350.465 717.886L363.259 711.683C363.519 711.556 363.81 711.503 364.098 711.531C364.386 711.558 364.662 711.665 364.893 711.839Z" fill="white"/>
<path fill-rule="evenodd" clip-rule="evenodd" d="M298.782 724.506C306.145 731.842 312.663 733.855 312.663 733.855L323.167 715.091L308.237 707.616L298.782 724.506Z" fill="white"/>
<path d="M584.606 519.089L509.09 532.505L523.954 592.282H572.326C572.326 592.282 595.32 542.859 584.606 519.089Z" fill="#FFCCB3"/>
<path d="M518.769 591.698C535.551 591.698 549.156 578.093 549.156 561.31C549.156 544.528 535.551 530.923 518.769 530.923C501.986 530.923 488.381 544.528 488.381 561.31C488.381 578.093 501.986 591.698 518.769 591.698Z" fill="#FFCCB3"/>
<path d="M488.758 566.098L519.165 756.49L554.237 757.954L550.142 569.751L488.758 566.098Z" fill="#FFCCB3"/>
<path d="M536.393 524.326C536.393 524.326 548.031 527.91 552.835 546.892C557.639 565.873 552.397 592.282 552.397 592.282H559.881C559.881 592.282 586.565 560.946 566.933 521.009L536.393 524.326Z" fill="#FF967C"/>
<path d="M609.818 361.511L600.313 366.071C596.668 367.82 593.455 370.352 590.902 373.486C588.349 376.621 586.52 380.28 585.544 384.203L564.057 470.659L515.615 493.821L526.659 511.362L618.25 508.114L609.818 361.511Z" fill="#5661AE"/>
<path d="M596.13 392.634C596.13 392.634 579.451 416.067 587.522 438.385C595.593 460.704 592.298 464.842 590.279 484.615C588.261 504.387 594.852 499.789 594.852 499.789L618.25 488.753C618.25 488.753 628.013 395.224 596.13 392.634Z" fill="#465393"/>
<path d="M694.259 500.253C694.259 500.253 703.507 545.509 691.388 564.421C676.048 588.359 657.285 592.025 643.419 592.283H552.397C552.397 592.283 552.229 535.495 507.387 525.793C507.387 525.793 654.969 484.69 694.259 500.253Z" fill="#1F2D49"/>
<path d="M696.299 513.431L599.834 516.607L600.86 509.869L619.658 507.696H696.164L696.299 513.431Z" fill="#0D1B33"/>
<path d="M571.537 492.226C571.537 492.226 559.736 495.656 554.435 497.216C549.134 498.775 538.652 502.517 538.652 502.517L546.327 513.431L581.109 511.362L571.537 492.226Z" fill="#FFCCB3"/>
<path d="M628.724 353.44C628.724 353.44 608.915 361.278 605.89 363.697C602.866 366.117 599.994 385.863 594.852 395.239C589.711 404.615 582.189 421.92 593.175 437.816C604.162 453.711 602.993 466.333 602.993 466.333L600.655 506.207L692.296 508.995C693.13 509.021 693.959 508.87 694.73 508.552C695.501 508.233 696.196 507.755 696.768 507.148C697.341 506.541 697.777 505.82 698.05 505.031C698.323 504.243 698.425 503.406 698.35 502.575C697.298 490.95 695.532 473.581 695.154 455.069C694.642 429.981 694.259 346.153 694.259 346.153L653.014 344.858C644.706 346.291 628.724 353.44 628.724 353.44Z" fill="#5661AE"/>
<path d="M694.259 390.659C706.549 390.659 716.512 380.696 716.512 368.406C716.512 356.116 706.549 346.153 694.259 346.153C681.969 346.153 672.006 356.116 672.006 368.406C672.006 380.696 681.969 390.659 694.259 390.659Z" fill="#5661AE"/>
<path d="M697.261 493.381C697.261 493.381 695.357 500.338 675.007 508.469C675.007 508.469 627.3 507.432 603.597 507.93C579.894 508.429 606.138 502.176 619.369 495.579C632.6 488.982 695.755 470.659 695.755 470.659L697.261 493.381Z" fill="#465393"/>
<path d="M678.026 380.42C678.026 380.42 664.228 393 663.416 402.334C662.605 411.668 660.728 437.694 642.996 440.29C621.26 443.472 615.571 446.57 625.647 449.005C635.723 451.44 658.59 447.494 658.59 457.933C658.59 465.361 667.475 470.919 671.939 466.861C676.403 462.803 711.96 401.117 678.026 380.42Z" fill="#465393"/>
<path d="M716.273 371.662C714.402 380.592 696.604 474.672 696.604 474.672C696.604 474.672 694.259 488.746 680.506 492.226L584.606 516.607L567.731 491.294L654.706 461.548L672.006 368.406C672.006 368.406 718.769 359.749 716.273 371.662Z" fill="#5661AE"/>
<path d="M626.488 336.114L627.401 366.987C627.401 366.987 627.156 372.314 633.621 371.595C640.086 370.877 653.097 366.043 656.689 359.818C660.281 353.592 658.013 351.457 658.013 351.457L638.28 312.996L626.488 336.114Z" fill="#FFCCB3"/>
<path d="M626.488 339.702L634.566 330.123L627.183 359.593L626.488 339.702Z" fill="#FF967C"/>
<path d="M633.689 260.014C633.34 254.124 634.624 248.251 637.401 243.044C641.997 234.736 651.543 223.246 666.038 228.196C680.533 233.145 691.139 244.282 685.659 260.014C680.18 275.747 664.956 280.781 657.2 279.105C649.443 277.429 633.689 260.014 633.689 260.014Z" fill="#080B09"/>
<path d="M629.021 262.202C629.855 260.794 631.105 259.679 632.598 259.009C634.091 258.339 635.755 258.147 637.361 258.46C643.097 259.516 649.135 264.045 654.267 269.478C659.399 274.912 659.231 278.856 656.9 281.261C654.568 283.667 629.021 262.202 629.021 262.202Z" fill="#FEBB94"/>
<path d="M501.878 419.719L538.652 521.599H612.59C612.59 518.488 611.354 515.504 609.154 513.305C606.955 511.105 603.971 509.869 600.86 509.869H547.369L515.615 419.719L501.878 419.719Z" fill="white"/>
<path d="M501.878 419.719H402.676L441.041 521.599H538.652L501.878 419.719Z" fill="#D4DCF4"/>
<path d="M470.664 482.686C475.605 482.686 479.61 478.68 479.61 473.74C479.61 468.799 475.605 464.793 470.664 464.793C465.723 464.793 461.718 468.799 461.718 473.74C461.718 478.68 465.723 482.686 470.664 482.686Z" fill="white"/>
<path d="M586.336 298.153C586.336 298.153 589.395 327.702 603.772 341.157C613.148 349.932 621.746 347.684 634.566 330.123C646.32 314.021 647.354 306.191 647.354 306.191L634.931 278.24C634.931 278.24 584.875 271.115 586.336 298.153Z" fill="#FFCCB3"/>
<path d="M591.424 292.367C591.424 292.367 598.498 303.627 611.454 303.809C614.166 306.03 617.403 307.516 620.855 308.123C624.307 308.731 627.857 308.439 631.163 307.277C631.163 307.277 625.996 299.439 631.163 296.692C639.937 292.028 642.96 307.58 638.28 312.996C635.1 316.677 638.463 320.963 640.835 324.796C643.207 328.628 650.872 338.117 650.872 338.117C650.872 338.117 650.142 332.643 653.609 328.628C657.077 324.613 668.324 283.511 647.432 268.391C626.54 253.272 604.548 265.368 600.425 268.391C600.425 268.391 578.472 272.225 578.433 295.056C578.4 314.574 592.291 319.217 592.291 319.217L588.145 303.463C588.145 303.463 590.709 303.737 591.424 292.367Z" fill="#080B09"/>
<path d="M614.771 328.765C614.771 328.765 616.395 333.83 610.889 336.183C607.173 337.405 604.577 333.766 604.577 333.766L614.771 328.765Z" fill="#E56441"/>
<path d="M595.51 321.337C596.654 321.055 597.244 319.459 596.827 317.773C596.411 316.088 595.147 314.95 594.003 315.232C592.859 315.515 592.269 317.11 592.685 318.796C593.101 320.482 594.366 321.62 595.51 321.337Z" fill="#080B09"/>
<path d="M612.469 317.406C613.613 317.124 614.203 315.528 613.787 313.843C613.371 312.157 612.106 311.019 610.962 311.302C609.818 311.584 609.228 313.18 609.645 314.865C610.061 316.551 611.326 317.689 612.469 317.406Z" fill="#080B09"/>
<path d="M588.93 312.247L597.561 310.266C597.705 310.22 597.827 310.123 597.905 309.994C597.983 309.865 598.012 309.711 597.986 309.563C597.89 309.309 597.743 309.077 597.556 308.882C597.368 308.686 597.142 308.53 596.892 308.424C596.642 308.318 596.374 308.264 596.102 308.265C595.831 308.265 595.563 308.321 595.313 308.428L588.545 311.295C587.982 311.434 588.225 312.421 588.93 312.247Z" fill="#080B09"/>
<path d="M617.91 304.522L606.669 308.045C606.594 307.694 606.593 307.331 606.667 306.979C606.74 306.628 606.887 306.296 607.097 306.005C607.306 305.714 607.575 305.47 607.885 305.288C608.195 305.107 608.539 304.993 608.896 304.953L617.877 303.782C618.158 303.713 618.332 304.418 617.91 304.522Z" fill="#080B09"/>
<path d="M601.563 315.7L600.344 324.801L603.558 326.353" stroke="#E56441" stroke-width="0.94666" stroke-linecap="round"/>
<defs>
<linearGradient id="paint0_linear" x1="490.961" y1="590.162" x2="595.295" y2="1134.36" gradientUnits="userSpaceOnUse">
<stop stop-color="white"/>
<stop offset="1" stop-color="#94B9FF"/>
</linearGradient>
</defs>
</svg>
