<svg width="1080" height="1080" viewBox="0 0 1080 1080" fill="none" xmlns="http://www.w3.org/2000/svg">
<rect width="1080" height="1080" fill="white"/>
<path d="M677.355 372.833H354V706.86H677.355V372.833Z" fill="#FEBB94"/>
<path d="M375.484 325.955H655.871C661.569 325.955 667.034 328.218 671.063 332.247C675.092 336.276 677.355 341.741 677.355 347.439V372.834H354V347.439C354 341.741 356.264 336.276 360.293 332.247C364.322 328.218 369.786 325.955 375.484 325.955Z" fill="#1C85E8"/>
<path d="M402.561 349.394H494.671" stroke="white" stroke-width="6.62824" stroke-miterlimit="10" stroke-linecap="round"/>
<path d="M354 706.86H677.355V787.987C677.355 792.015 675.755 795.878 672.908 798.726C670.06 801.574 666.197 803.173 662.169 803.173H369.186C365.159 803.173 361.296 801.574 358.448 798.726C355.6 795.878 354 792.015 354 787.987V706.86Z" fill="white"/>
<path d="M373.696 728.341C372.216 727.43 370.84 726.359 369.594 725.147C368.715 724.271 368.048 723.207 367.642 722.034C366.909 719.756 367.765 717.147 370.161 716.375C370.782 716.176 371.441 716.128 372.084 716.236C372.727 716.345 373.335 716.606 373.856 716.998C374.377 716.606 374.985 716.345 375.628 716.237C376.271 716.129 376.93 716.176 377.551 716.375C378.092 716.576 378.588 716.883 379.009 717.278C379.43 717.673 379.767 718.147 380.003 718.674C380.238 719.201 380.365 719.77 380.378 720.347C380.391 720.924 380.288 721.498 380.076 722.034C379.67 723.207 379.003 724.271 378.124 725.147C376.878 726.359 375.502 727.43 374.022 728.341L373.862 728.44L373.696 728.341Z" stroke="#1C85E8" stroke-width="1.02173" stroke-linecap="round" stroke-linejoin="round"/>
<path fill-rule="evenodd" clip-rule="evenodd" d="M403.622 723.257C403.465 723.257 403.311 723.21 403.18 723.122C403.05 723.035 402.948 722.911 402.888 722.765C402.828 722.62 402.812 722.46 402.843 722.306C402.873 722.152 402.949 722.01 403.06 721.899C403.171 721.788 403.313 721.712 403.467 721.681C403.621 721.651 403.781 721.666 403.927 721.726C404.072 721.787 404.196 721.888 404.284 722.019C404.371 722.15 404.418 722.304 404.418 722.461C404.418 722.672 404.334 722.874 404.185 723.023C404.035 723.173 403.833 723.257 403.622 723.257ZM406.716 723.257C406.559 723.257 406.405 723.21 406.275 723.122C406.144 723.035 406.042 722.911 405.982 722.765C405.922 722.62 405.906 722.46 405.937 722.306C405.968 722.152 406.043 722.01 406.155 721.899C406.266 721.788 406.407 721.712 406.562 721.681C406.716 721.651 406.876 721.666 407.021 721.726C407.166 721.787 407.291 721.888 407.378 722.019C407.465 722.15 407.512 722.304 407.512 722.461C407.512 722.672 407.428 722.874 407.279 723.023C407.13 723.173 406.927 723.257 406.716 723.257ZM409.015 722.461C409.015 722.618 409.061 722.772 409.148 722.903C409.236 723.034 409.36 723.137 409.505 723.197C409.651 723.258 409.811 723.273 409.965 723.243C410.12 723.212 410.262 723.137 410.373 723.025C410.485 722.914 410.561 722.772 410.591 722.618C410.622 722.463 410.607 722.303 410.546 722.158C410.486 722.012 410.384 721.888 410.253 721.8C410.122 721.713 409.968 721.666 409.811 721.666C409.6 721.666 409.398 721.75 409.249 721.899C409.099 722.048 409.015 722.25 409.015 722.461Z" fill="#1C85E8"/>
<path d="M406.568 715.498C405.671 715.497 404.784 715.672 403.955 716.015C403.127 716.357 402.374 716.86 401.74 717.493C401.106 718.127 400.603 718.879 400.261 719.708C399.918 720.536 399.742 721.423 399.743 722.32C399.763 723.513 400.079 724.682 400.662 725.723C400.715 725.816 400.747 725.919 400.756 726.025C400.764 726.132 400.748 726.238 400.71 726.338L400.253 727.866C400.228 727.943 400.224 728.025 400.244 728.104C400.263 728.183 400.305 728.254 400.363 728.31C400.422 728.366 400.495 728.404 400.575 728.419C400.654 728.435 400.737 728.427 400.812 728.397L402.188 727.989C402.365 727.947 402.548 727.948 402.725 727.99C402.901 728.033 403.065 728.117 403.203 728.234C404.109 728.747 405.121 729.045 406.161 729.106C407.201 729.166 408.241 728.987 409.2 728.583C410.16 728.178 411.014 727.559 411.697 726.773C412.38 725.986 412.874 725.054 413.14 724.047C413.406 723.04 413.437 721.985 413.232 720.964C413.027 719.943 412.59 718.983 411.955 718.157C411.32 717.332 410.504 716.663 409.57 716.201C408.637 715.74 407.609 715.5 406.568 715.498V715.498Z" stroke="#1C85E8" stroke-width="1.02173" stroke-linecap="round" stroke-linejoin="round"/>
<path d="M441.876 719.667L438.018 723.551L441.876 719.667ZM438.018 723.551L433.501 720.771C433.369 720.689 433.263 720.571 433.197 720.431C433.13 720.29 433.106 720.133 433.126 719.979C433.147 719.825 433.212 719.681 433.313 719.563C433.414 719.445 433.547 719.358 433.696 719.314L444.36 716.211C444.498 716.172 444.644 716.17 444.783 716.207C444.922 716.244 445.049 716.317 445.15 716.42C445.251 716.523 445.322 716.65 445.356 716.79C445.391 716.93 445.387 717.076 445.345 717.214L442.181 727.866C442.138 728.015 442.052 728.148 441.935 728.248C441.817 728.349 441.673 728.413 441.519 728.433C441.366 728.453 441.21 728.427 441.071 728.36C440.931 728.292 440.815 728.186 440.735 728.053L438.018 723.551Z" stroke="#1C85E8" stroke-width="1.02173" stroke-linecap="round" stroke-linejoin="round"/>
<path d="M457.126 619.974H563.612V568.259H457.126V619.974Z" fill="#FFDACC"/>
<path d="M539.667 455.989C539.667 455.989 520.541 477.456 526.902 484.342C539.5 498.493 573.008 525.092 583.987 533.896C584.461 534.259 585.002 534.524 585.58 534.677C586.157 534.83 586.758 534.867 587.35 534.786C587.941 534.705 588.511 534.508 589.026 534.206C589.541 533.904 589.991 533.503 590.35 533.026L616.312 498.892C617.327 497.578 617.801 495.925 617.635 494.273C617.47 492.62 616.678 491.094 615.422 490.008L565.133 446.643L539.667 455.989Z" fill="#1C85E8"/>
<path d="M569.862 483.28C569.862 483.28 593.697 497.447 595.845 525.912L591.099 532.011C591.099 532.011 588.118 537.205 583.987 533.896C579.857 530.587 560.749 515.282 560.749 515.282L569.862 483.28Z" fill="#0E66AF"/>
<path d="M547.575 494.072C562.443 494.072 574.496 482.019 574.496 467.151C574.496 452.283 562.443 440.23 547.575 440.23C532.708 440.23 520.655 452.283 520.655 467.151C520.655 482.019 532.708 494.072 547.575 494.072Z" fill="#1C85E8"/>
<path d="M617.676 551.538L641.203 520.387L618.931 503.097L615.44 500.287L591.037 532.2L595.286 535.257L617.676 551.538Z" fill="#FFDACC"/>
<path d="M595.286 535.257C601.588 526.819 613.439 510.329 618.931 503.097L615.44 500.287L591.099 532.01L595.286 535.257Z" fill="#FF967C"/>
<path d="M629.797 555.858C640.59 555.858 649.34 547.109 649.34 536.316C649.34 525.523 640.59 516.773 629.797 516.773C619.004 516.773 610.255 525.523 610.255 536.316C610.255 547.109 619.004 555.858 629.797 555.858Z" fill="#FFDACC"/>
<path d="M613.25 525.803C613.25 525.803 676.291 433.224 679.205 425.361C682.041 417.683 696.931 436.16 696.931 436.16L648.141 542.609L613.25 525.803Z" fill="#FFDACC"/>
<path d="M677.355 430.136C684.009 416.462 680.389 414.372 683.127 406.643C685.828 399.1 679.501 381.034 684.825 383.28C690.148 385.527 692.081 392.091 692.081 392.091C695.332 385.624 698.045 373.885 706.497 372.145C714.949 370.405 715.834 373.049 720.854 376.775C734.217 386.835 718.622 403.691 716.187 409.939C714.614 413.858 702.262 426.174 700.955 428.797L694.911 438.548L677.355 430.136Z" fill="#FFDACC"/>
<path d="M700.672 392.499L710.117 372.833L700.672 392.499Z" fill="#E56441"/>
<path d="M700.672 392.499L710.117 372.833" stroke="#E56441" stroke-width="0.98391" stroke-linecap="round"/>
<path d="M707.623 395.271L718.065 376.876L707.623 395.271Z" fill="#E56441"/>
<path d="M707.623 395.271L718.065 376.876" stroke="#E56441" stroke-width="0.98391" stroke-linecap="round"/>
<path d="M715.869 398.308L721.807 387.187L715.869 398.308Z" fill="#E56441"/>
<path d="M715.869 398.308L721.807 387.187" stroke="#E56441" stroke-width="0.98391" stroke-linecap="round"/>
<path d="M698.929 409.492C698.552 402.86 694.179 395.026 694.179 395.026L698.929 409.492Z" fill="#E56441"/>
<path d="M698.929 409.492C698.552 402.86 694.179 395.026 694.179 395.026" stroke="#E56441" stroke-width="0.98391" stroke-linecap="round"/>
<path d="M527.806 433.849C527.806 433.849 554.547 440.003 558.682 443.311C562.817 446.618 565.823 473.503 571.934 486.783C580.981 506.443 586.838 516.901 571.639 538.506C562.473 551.537 565.59 584.665 565.59 584.665C565.59 584.665 574.891 628.756 580.983 706.859H436.762C446.009 613.357 450.768 619.198 450.768 589.549C450.768 514.637 442.406 442.737 442.406 442.737L492.774 431.131C504.131 433.089 527.806 433.849 527.806 433.849Z" fill="#1C85E8"/>
<path d="M565.341 581.148C565.341 581.148 514.491 604.076 449.898 581.148C449.898 581.148 449.715 591.959 449.367 597.616C449.367 597.616 515.678 622.25 567.642 595.608C567.642 595.608 567.719 585.777 565.341 581.148Z" fill="white"/>
<path opacity="0.6" d="M466.818 467.151C466.818 467.151 484.381 478.763 479.208 490.48C473.39 503.654 473.44 537.585 490.136 539.711C519.926 543.505 506.983 548.715 493.209 552.043C479.435 555.372 471.999 564.034 471.999 578.304C471.999 588.46 488.627 622.308 447.098 622.25C456.635 551.538 436.468 490.732 466.818 467.151Z" fill="#0E66AF"/>
<path d="M407.868 576.646L443.271 575.431L459.537 525.497L418.593 520.598L407.868 576.646Z" fill="#FFDACC"/>
<path d="M425.549 594.325C435.314 594.325 443.229 586.41 443.229 576.645C443.229 566.881 435.314 558.966 425.549 558.966C415.785 558.966 407.87 566.881 407.87 576.645C407.87 586.41 415.785 594.325 425.549 594.325Z" fill="#FFDACC"/>
<path d="M439.024 684.892C439.024 684.892 435.621 700.205 441.689 709.622C441.689 709.622 437.349 727.322 438.982 729.449C441.801 732.9 444.975 729.223 444.975 729.223C444.975 729.223 443.837 740.394 454.167 740.097C468.661 739.784 468.343 719.984 467.808 710.679C467.5 701.491 457.54 681.767 457.54 681.767L439.024 684.892Z" fill="#FFDACC"/>
<path d="M471.908 728.691L467.875 709.71L465.229 729.138C465.229 729.138 469.448 735.17 471.537 731.654C472.015 730.744 472.147 729.691 471.908 728.691Z" fill="#FFDACC"/>
<path d="M444.92 729.051L447.098 716.407" stroke="#E56441" stroke-width="1.80404" stroke-linecap="round" stroke-linejoin="round"/>
<path d="M454.229 733.822C454.229 733.822 456.824 719.527 456.625 716.559" stroke="#E56441" stroke-width="1.80404" stroke-linecap="round" stroke-linejoin="round"/>
<path d="M461.356 734.178C463.047 728.387 463.856 722.375 463.758 716.344" stroke="#E56441" stroke-width="1.80404" stroke-linecap="round" stroke-linejoin="round"/>
<path d="M443.09 574.024C443.09 574.024 457.069 683.245 459.737 690.346C462.35 697.275 439.024 684.892 439.024 684.892L409.282 583.216L443.09 574.024Z" fill="#FFDACC"/>
<path d="M417.21 527.15L415.775 533.954L456.096 534.822L458.748 527.634L417.21 527.15Z" fill="#FF967C"/>
<path d="M449.1 495.733C463.967 495.733 476.02 483.68 476.02 468.813C476.02 453.945 463.967 441.892 449.1 441.892C434.232 441.892 422.179 453.945 422.179 468.813C422.179 483.68 434.232 495.733 449.1 495.733Z" fill="#1C85E8"/>
<path d="M454.292 456.157C454.292 456.157 425.92 451.5 423.511 460.559C418.306 478.777 411.907 508.024 410.351 522.011C410.299 522.606 410.364 523.205 410.544 523.774C410.724 524.344 411.015 524.871 411.4 525.328C411.785 525.784 412.257 526.159 412.788 526.432C413.319 526.705 413.898 526.871 414.493 526.919L457.223 530.566C458.877 530.72 460.526 530.234 461.833 529.209C463.14 528.185 464.005 526.698 464.25 525.056L475.822 472.658L454.292 456.157Z" fill="#1C85E8"/>
<path d="M512.013 286.533C512.013 286.533 490.135 280.503 467.044 299.599C443.953 318.695 449.747 338.355 449.747 338.355L512.013 286.533Z" fill="url(#paint0_linear)"/>
<path d="M554.839 325.477C554.839 325.477 597.197 265.834 540.84 277.517C475.822 290.994 418.602 356.024 434.612 376.952C450.621 397.88 517.22 351.847 554.839 325.477Z" fill="url(#paint1_linear)"/>
<path d="M560.238 348.595C560.238 348.595 560.402 383.833 574.503 396.987C588.604 410.141 572.633 438.656 548.324 434.877C524.015 431.098 511.774 407.812 513.256 398.498C514.738 389.183 544.926 340.988 560.238 348.595Z" fill="#080B09"/>
<path d="M526.462 396.698L534.04 449.534C534.04 449.534 536.03 456.547 527.201 457.609C518.372 458.671 499.545 456.299 492.822 449.133C486.098 441.968 488.45 438.418 488.45 438.418L502.71 381.069L526.462 396.698Z" fill="#FFDACC"/>
<path d="M527.516 403.535L508.979 396.987L531.579 432.369L527.516 403.535Z" fill="#FF967C"/>
<path d="M547.436 331.434C547.436 331.434 563.34 368.802 555.051 394.414C549.646 411.117 537.874 414.12 510.914 401.603C486.195 390.126 479.775 381.444 479.775 381.444L476.129 339.788C476.129 339.788 531.284 298.127 547.436 331.434Z" fill="#FFDACC"/>
<path d="M534.341 387.342L548.592 386.637C548.572 386.732 548.548 386.836 548.519 386.949C548.378 387.508 548.139 388.261 547.744 389.041C546.958 390.597 545.583 392.215 543.174 392.681C539.294 393.07 537.072 391.576 535.802 390.02C535.157 389.23 534.75 388.413 534.504 387.791C534.438 387.625 534.384 387.474 534.341 387.342Z" fill="#E56441" stroke="#E56441"/>
<path d="M551.812 365.238C553.367 364.818 554.127 362.62 553.509 360.328C552.89 358.037 551.129 356.519 549.573 356.938C548.018 357.358 547.259 359.556 547.877 361.848C548.495 364.139 550.257 365.657 551.812 365.238Z" fill="#080B09"/>
<path d="M528.925 371.765C530.48 371.345 531.24 369.147 530.621 366.855C530.003 364.563 528.241 363.046 526.686 363.465C525.131 363.885 524.371 366.083 524.99 368.374C525.608 370.666 527.37 372.184 528.925 371.765Z" fill="#080B09"/>
<path d="M553.664 350.009L542.03 353.354C541.827 353.394 541.617 353.359 541.438 353.256C541.259 353.153 541.123 352.989 541.056 352.794C541.003 352.427 541.024 352.053 541.119 351.694C541.215 351.336 541.382 351 541.61 350.708C541.839 350.416 542.124 350.173 542.449 349.994C542.774 349.816 543.132 349.704 543.501 349.668L553.494 348.616C554.261 348.41 554.622 349.751 553.664 350.009Z" fill="#080B09"/>
<path d="M513.888 359.955L529.665 356.726C529.523 356.257 529.283 355.822 528.963 355.451C528.642 355.08 528.247 354.779 527.803 354.57C527.359 354.361 526.877 354.246 526.386 354.235C525.896 354.223 525.408 354.315 524.955 354.503L513.437 359.049C513.055 359.152 513.313 360.11 513.888 359.955Z" fill="#080B09"/>
<path d="M540.841 362.503L548.324 372.581L545.507 376.565" stroke="#E56441" stroke-width="1.29416" stroke-linecap="round"/>
<path d="M537.52 327.882C537.52 327.882 536.514 346.033 521.137 354.829C521.137 354.829 516.641 368.75 499.859 372.024C499.859 372.024 500.851 359.228 492.852 359.364C479.27 359.594 485.95 380.196 495.133 383.576C501.373 385.874 507.896 410.711 498.542 431.926C486.294 459.704 447.801 453.742 442.406 431.131C432.97 391.589 464.149 374.276 465.504 340.388C494.671 310.259 501.004 309.029 510.882 305.164C510.882 305.164 539.677 295.216 554.839 322.499C567.8 345.821 555.695 359.74 555.695 359.74L548.788 338.983C548.788 338.983 545.902 341.009 537.52 327.882Z" fill="#080B09"/>
<path d="M381.762 359.112C387.129 359.112 391.48 354.761 391.48 349.394C391.48 344.027 387.129 339.676 381.762 339.676C376.395 339.676 372.044 344.027 372.044 349.394C372.044 354.761 376.395 359.112 381.762 359.112Z" fill="white"/>
<path d="M367.388 745.571H410.084" stroke="#1C85E8" stroke-width="6.62824" stroke-miterlimit="10" stroke-linecap="round"/>
<path opacity="0.3" d="M367.388 762.021H584.991" stroke="#1C85E8" stroke-width="6.62824" stroke-miterlimit="10" stroke-linecap="round"/>
<path opacity="0.3" d="M367.388 778.472H461.356" stroke="#1C85E8" stroke-width="6.62824" stroke-miterlimit="10" stroke-linecap="round"/>
<path d="M456.472 353.375C456.472 353.375 487.284 304.351 530.837 299.364" stroke="#96BAFD" stroke-width="2" stroke-miterlimit="10" stroke-linecap="round"/>
<path d="M679.205 425.361C679.205 425.361 671.431 423.221 668.265 427.232C665.098 431.243 672.98 438.699 681.986 443.909C690.992 449.118 700.14 450.009 703.096 446.642C706.051 443.275 699.795 437.167 696.931 435.289" stroke="#1C85E8" stroke-width="1.29416" stroke-linecap="round"/>
<defs>
<linearGradient id="paint0_linear" x1="472.97" y1="219.907" x2="496.837" y2="396.489" gradientUnits="userSpaceOnUse">
<stop stop-color="white"/>
<stop offset="1" stop-color="#94B9FF"/>
</linearGradient>
<linearGradient id="paint1_linear" x1="485.003" y1="242.193" x2="512.44" y2="502.426" gradientUnits="userSpaceOnUse">
<stop stop-color="white"/>
<stop offset="1" stop-color="#94B9FF"/>
</linearGradient>
</defs>
</svg>
