<svg width="1080" height="1080" viewBox="0 0 1080 1080" fill="none" xmlns="http://www.w3.org/2000/svg">
<rect width="1080" height="1080" fill="white"/>
<path d="M721.818 833.345L671.13 900.73C669.936 902.318 668.16 903.366 666.193 903.644C664.226 903.922 662.229 903.408 660.642 902.213L655.937 898.674L715.63 819.318L720.335 822.857C721.922 824.051 722.97 825.827 723.248 827.794C723.527 829.761 723.012 831.758 721.818 833.345Z" fill="#5661AE"/>
<path d="M674.002 793.885L692.279 808.738L673.711 837.387L653.109 821.66L674.002 793.885Z" fill="#BC775C"/>
<path d="M682.12 801.122L659.357 825.951L653.818 821.582L675.136 795.389L682.12 801.122Z" fill="#93523E" stroke="#93523E"/>
<path d="M689.829 806.896C689.829 806.896 684.695 824.944 667.789 834.189L652.517 893.891C653.002 897.318 656.831 899.519 659.376 900.335C659.936 900.511 660.536 900.509 661.094 900.329C661.652 900.148 662.14 899.799 662.49 899.328L716.675 827.294C717.58 826.092 717.978 824.584 717.782 823.092C717.587 821.601 716.814 820.245 715.629 819.318C710.891 815.606 703.627 810.01 700.481 808.09C695.618 805.121 692.151 804.434 689.829 806.896Z" fill="#1C85E8"/>
<path d="M664.254 846.569L672.944 844.705C673.261 844.637 673.59 844.648 673.902 844.737C674.214 844.826 674.5 844.991 674.734 845.216C674.967 845.441 675.142 845.721 675.242 846.029C675.343 846.338 675.365 846.667 675.309 846.986C675.24 847.378 675.054 847.74 674.776 848.025C674.498 848.309 674.141 848.504 673.751 848.583L663.083 850.736L664.254 846.569Z" fill="white"/>
<path d="M662.203 856.029L670.848 854.145C671.165 854.077 671.495 854.088 671.807 854.177C672.119 854.266 672.404 854.43 672.638 854.655C672.872 854.881 673.046 855.16 673.147 855.469C673.247 855.777 673.27 856.106 673.213 856.426C673.144 856.817 672.958 857.179 672.68 857.464C672.402 857.749 672.045 857.943 671.655 858.022L661.135 860.205L662.203 856.029Z" fill="white"/>
<path d="M659.568 866.328L668.114 864.419C668.431 864.351 668.761 864.362 669.073 864.451C669.385 864.54 669.67 864.704 669.904 864.93C670.138 865.155 670.312 865.434 670.413 865.743C670.513 866.052 670.536 866.38 670.479 866.7C670.41 867.092 670.224 867.454 669.947 867.738C669.669 868.023 669.311 868.218 668.921 868.296L658.527 870.394L659.568 866.328Z" fill="white"/>
<path d="M500.287 715.354L644.955 831.909L677.96 793.448L551.467 674.778L500.287 715.354Z" fill="#1F2D49"/>
<path d="M577.884 699.56V777.871L644.956 831.909L654.589 771.521L577.884 699.56Z" fill="#0D1B33"/>
<path d="M513.126 501.075L489.346 690.703H555.833L613.59 502.026L513.126 501.075Z" fill="#1F2D49"/>
<path d="M570.213 643.726L581.38 549.653H608.836L570.213 643.726Z" fill="#0D1B33"/>
<path d="M629.895 905.041H545.574C543.587 905.041 541.682 904.251 540.277 902.847C538.873 901.442 538.084 899.537 538.084 897.55V891.663H637.385V897.55C637.385 899.537 636.596 901.442 635.191 902.847C633.786 904.251 631.881 905.041 629.895 905.041Z" fill="#5661AE"/>
<path d="M632.686 843.108L631.802 866.643L597.746 869.027L597.929 843.108H632.686Z" fill="#BC775C"/>
<path d="M631.781 853.946L598.257 850.68L598.417 843.627L632.165 844.918L631.781 853.946Z" fill="#93523E" stroke="#93523E"/>
<path d="M631.802 863.578C631.802 863.578 614.293 870.324 596.742 862.371L539.851 886.055C537.403 888.502 537.946 892.885 538.824 895.41C539.02 895.963 539.382 896.441 539.862 896.779C540.341 897.116 540.914 897.296 541.5 897.293H631.639C633.143 897.294 634.588 896.705 635.662 895.652C636.737 894.599 637.355 893.167 637.385 891.663C637.503 885.645 637.608 876.476 637.251 872.807C636.701 867.136 635.166 863.953 631.802 863.578Z" fill="#1C85E8"/>
<path d="M584.723 866.988L591.436 872.812C591.681 873.025 591.871 873.295 591.987 873.598C592.104 873.9 592.144 874.227 592.104 874.55C592.065 874.872 591.946 875.179 591.76 875.445C591.574 875.711 591.325 875.927 591.035 876.073C590.681 876.254 590.28 876.323 589.885 876.272C589.49 876.221 589.12 876.052 588.823 875.788L580.689 868.557L584.723 866.988Z" fill="white"/>
<path d="M575.93 871.035L582.633 876.811C582.878 877.024 583.067 877.293 583.184 877.596C583.3 877.899 583.34 878.226 583.301 878.548C583.261 878.87 583.143 879.178 582.957 879.444C582.77 879.709 582.521 879.925 582.232 880.072C581.877 880.252 581.476 880.322 581.082 880.271C580.687 880.22 580.317 880.051 580.02 879.787L571.951 872.691L575.93 871.035Z" fill="white"/>
<path d="M566.116 875.121L572.779 880.803C573.024 881.016 573.213 881.286 573.33 881.589C573.446 881.892 573.487 882.219 573.447 882.541C573.407 882.863 573.289 883.17 573.103 883.436C572.916 883.702 572.668 883.918 572.378 884.065C572.023 884.245 571.623 884.314 571.228 884.263C570.833 884.212 570.463 884.043 570.166 883.779L562.241 876.734L566.116 875.121Z" fill="white"/>
<path d="M653.923 502.026C653.377 511.643 653.377 521.282 653.923 530.898C656.134 561.983 649.066 652.755 649.123 664.699C649.18 676.644 641.312 844.877 641.312 844.877H593.511C593.511 844.877 581.292 700.296 581.01 683.749C580.728 667.203 577.884 502.706 577.884 502.706L653.923 502.026Z" fill="#1F2D49"/>
<path d="M511.686 512.557L653.924 530.898V502.026L512.423 506.679L511.686 512.557Z" fill="#0D1B33"/>
<path d="M522.589 723.946C540.949 723.946 555.832 709.063 555.832 690.703C555.832 672.343 540.949 657.459 522.589 657.459C504.229 657.459 489.346 672.343 489.346 690.703C489.346 709.063 504.229 723.946 522.589 723.946Z" fill="#1F2D49"/>
<path d="M621.532 522.973C621.532 522.973 615.147 535.046 613.589 536.432C612.032 537.817 586.354 540.984 581.38 542.765C576.407 544.546 574.032 547.239 574.032 549.653H634.396C634.396 549.653 635.958 548.197 637.083 543.557C638.209 538.916 640.177 536.948 640.177 536.948L621.532 522.973Z" fill="#BC775C"/>
<path d="M534.769 332.777C538.739 313.178 529.403 313.683 526.296 310.567C526.296 310.567 514.641 300.955 505.759 309.915C496.358 319.392 442.47 393.012 442.47 393.012L476.188 424.023L482.526 416.46L498.943 396.88L516.503 375.952L518.685 373.57L542.373 346.739C542.373 346.739 532.524 343.094 534.769 332.777Z" fill="#5661AE"/>
<path d="M548.871 336.116C553.417 322.546 546.1 307.86 532.53 303.315C518.96 298.77 504.274 306.086 499.729 319.656C495.184 333.227 502.5 347.912 516.07 352.457C529.641 357.003 544.326 349.686 548.871 336.116Z" fill="#5661AE"/>
<path d="M518.374 373.466C519.054 369.369 520.414 361.177 521.877 353.711L529.657 317.573C529.657 317.573 508.763 348.453 499.138 369.963C492.009 386.082 483.739 402.511 482.371 416.408L498.788 396.827L516.348 375.9L518.374 373.466Z" fill="#465393"/>
<path d="M408.79 310.128C400.778 295.515 404.629 293.034 401.22 284.719C397.862 276.606 403.825 256.493 398.117 259.235C392.409 261.978 390.643 269.266 390.643 269.266C386.739 262.361 383.144 249.655 373.8 248.201C364.454 246.747 363.627 249.688 358.33 254.035C344.238 265.759 362.207 283.38 365.207 290.09C367.137 294.296 381.314 307.118 382.886 309.921L390.021 320.272L408.79 310.128Z" fill="#BC775C"/>
<path d="M381.26 270.172L369.873 249.147" stroke="#93523E" stroke-width="1.07832" stroke-linecap="round"/>
<path d="M373.8 273.576L361.389 253.996" stroke="#93523E" stroke-width="1.07832" stroke-linecap="round"/>
<path d="M364.935 277.34L357.842 265.482" stroke="#93523E" stroke-width="1.07832" stroke-linecap="round"/>
<path d="M384.074 288.68C384.134 281.4 388.503 272.591 388.503 272.591" stroke="#93523E" stroke-width="1.07832" stroke-linecap="round"/>
<path d="M476.474 392.426L407.909 301.117C407.472 300.581 406.852 300.225 406.168 300.119C405.484 300.012 404.786 300.163 404.206 300.541L386.253 312.415C385.399 312.993 384.792 313.867 384.547 314.868C384.303 315.869 384.439 316.926 384.93 317.832L440.068 419.517L476.474 392.426Z" fill="#5661AE"/>
<path d="M459.814 430.992C472.495 430.992 482.775 420.712 482.775 408.031C482.775 395.35 472.495 385.071 459.814 385.071C447.133 385.071 436.854 395.35 436.854 408.031C436.854 420.712 447.133 430.992 459.814 430.992Z" fill="#5661AE"/>
<path d="M555.751 289.927C555.751 289.927 522.274 300.575 515.669 303.338C509.064 306.101 508.624 317.153 508.184 324.981C507.875 330.466 514.066 420.532 514.473 472.694C514.56 483.838 512.482 490.908 511.148 497.102C509.813 503.296 511.148 506.667 511.148 506.667L654.589 507.95C654.589 507.95 650.289 326.713 649.408 320.267C648.527 313.82 655.447 308.268 647.946 305.023L593.173 289.927H555.751Z" fill="white"/>
<path d="M537.75 295.74C537.75 295.74 543.216 320.74 546.797 340.748C550.378 360.756 551.468 526.392 551.468 526.392C551.468 526.392 509.553 518.243 503.875 508.614C498.198 498.984 509.134 455.719 509.985 416.408C510.836 377.097 502.561 316.09 511.249 305.507C511.249 305.507 513.478 303.299 537.75 295.74Z" fill="#5661AE"/>
<path d="M608.196 294.133C608.196 294.133 588.308 335.569 589.525 348.198C590.741 360.827 590.81 468.528 589.525 491.014C588.726 504.693 586.642 518.267 583.3 531.555C583.3 531.555 637.554 535.397 658.519 528.835C658.519 528.835 668.471 466.179 661.939 443.796C655.406 421.413 650.416 305.083 650.416 305.083L608.196 294.133Z" fill="#5661AE"/>
<path d="M622.871 349.816C622.871 349.816 624.908 424.911 624.485 449.942C624.221 465.54 606.387 472.146 606.334 481.177C606.303 486.52 620.416 480.265 624.221 485.789C628.025 491.312 621.521 508.614 621.521 508.614L654.588 507.95L667.832 443.681L639.927 345.951L622.871 349.816Z" fill="#465393"/>
<path d="M556.439 273.189L553.334 308.186C553.334 308.186 552.505 313.622 561.947 315.342C569.444 316.707 585.023 307.898 588.539 304.996C596.355 298.546 597.078 294.643 596.252 291.654C595.068 287.371 591.201 257.191 591.201 257.191L556.439 273.189Z" fill="#BC775C"/>
<path d="M554.4 301.83L556.313 280.259L572.976 272.028L554.4 301.83Z" fill="#93523E" stroke="#93523E"/>
<path d="M537.915 206.951C537.915 206.951 531.531 235.544 530.681 255.017C529.824 274.664 536.845 278.405 545.549 279.872C552.414 281.029 563.093 281.113 569.808 277.76C582.053 271.645 602.156 256.805 604.787 253.925C608.861 249.467 608.581 229.584 593.023 224.667C581.706 221.09 552.852 190.725 537.915 206.951Z" fill="#BC775C"/>
<path d="M537.977 210C547.26 213.639 564.732 211.248 574.329 214.363C583.913 217.487 575.192 220.784 575.61 230.042C575.879 236.039 576.335 247.499 580.015 247.347C583.696 247.196 585.863 234.181 593.624 234.677C601.383 235.183 605.043 238.497 604.873 243.461C604.705 248.414 599.128 252.731 594.729 255.023C589.222 257.875 586.949 256.68 586.949 256.68C586.949 256.68 593.147 279.499 594.083 278.595C594.083 278.595 600.768 274.823 601.974 268.217C601.974 268.217 610.846 266.295 608.881 257.422C608.881 257.422 614.407 255.649 611.785 250.512C611.785 250.512 626.064 240.91 618.622 229.16C618.622 229.16 625.398 222.404 617.305 219.548C617.305 219.548 628.022 203.886 612.776 200.546C612.776 200.546 613.798 193.174 606.819 193.455C606.819 193.455 603.768 180.775 588.537 185.776C588.465 183.237 587.626 180.779 586.132 178.725C584.638 176.671 582.558 175.116 580.164 174.265C571.538 170.792 565.924 175.572 565.924 175.572C565.924 175.572 556.871 168.188 552.104 179.014C552.104 179.014 545.257 175.514 540.124 179.233C534.983 182.94 537.482 190.711 537.482 190.711C537.482 190.711 531.607 189.334 529.463 194.2C526.435 201.047 530.687 203.542 530.687 203.542C530.687 203.542 521.122 214.85 534.573 225.561L537.977 210Z" fill="#493212"/>
<path d="M561.34 238.228C561.845 235.915 561.026 233.772 559.511 233.441C557.996 233.11 556.358 234.717 555.853 237.029C555.348 239.341 556.167 241.484 557.682 241.815C559.197 242.146 560.834 240.54 561.34 238.228Z" fill="#080B09"/>
<path d="M540.494 233.533C540.999 231.221 540.18 229.078 538.665 228.747C537.15 228.416 535.513 230.022 535.007 232.335C534.502 234.647 535.321 236.79 536.836 237.121C538.351 237.452 539.989 235.846 540.494 233.533Z" fill="#080B09"/>
<path d="M544.615 239.673C544.615 239.673 547.203 244.659 543.463 244.735C539.889 244.685 537.807 246.782 541.412 249.821" stroke="#93523E" stroke-width="1.07832" stroke-linecap="round"/>
<path d="M541.965 254.431L541.981 254.433L541.997 254.434C544.214 254.594 548.641 254.912 551.584 255.173L551.584 255.173L551.589 255.173C551.675 255.18 551.757 255.21 551.827 255.26C551.897 255.311 551.952 255.379 551.986 255.459C552.02 255.538 552.031 255.625 552.019 255.71C552.007 255.792 551.974 255.87 551.922 255.935C551.275 256.648 550.423 257.496 549.476 258.227C548.519 258.966 547.497 259.56 546.515 259.797C545.553 260.028 544.646 259.915 543.834 259.264C542.998 258.593 542.198 257.299 541.601 255.024L541.591 254.985L541.575 254.948C541.548 254.888 541.538 254.822 541.545 254.756C541.553 254.69 541.578 254.628 541.618 254.575C541.657 254.522 541.71 254.481 541.771 254.456C541.832 254.43 541.899 254.422 541.965 254.431Z" fill="#93523E" stroke="#93523E"/>
<path d="M568.603 230.608L568.396 231.027C568.146 231.664 567.655 232.176 567.03 232.453C566.405 232.729 565.695 232.747 565.057 232.502L554.194 228.006C553.66 227.81 553.218 227.42 552.957 226.914C552.696 226.408 552.634 225.822 552.785 225.273C552.861 224.932 553.008 224.611 553.218 224.332C553.427 224.052 553.693 223.821 553.999 223.652C554.304 223.483 554.642 223.38 554.99 223.352C555.338 223.323 555.688 223.368 556.018 223.485L567.088 227.563C567.39 227.658 567.671 227.814 567.912 228.02C568.153 228.227 568.35 228.48 568.492 228.764C568.633 229.048 568.716 229.358 568.735 229.675C568.754 229.992 568.709 230.309 568.603 230.608Z" fill="#080B09"/>
<path d="M531.951 220.495L543.721 219.701C544.07 219.682 544.418 219.737 544.744 219.863C545.07 219.989 545.366 220.182 545.611 220.43C545.857 220.678 546.047 220.976 546.169 221.303C546.291 221.63 546.342 221.979 546.319 222.328C546.309 222.897 546.085 223.442 545.692 223.854C545.299 224.266 544.765 224.515 544.197 224.553L532.508 225.806C531.826 225.861 531.15 225.645 530.628 225.203C530.106 224.762 529.779 224.132 529.72 223.451L529.638 222.991C529.621 222.674 529.667 222.356 529.775 222.058C529.882 221.759 530.049 221.485 530.265 221.252C530.481 221.019 530.741 220.832 531.031 220.702C531.32 220.572 531.633 220.502 531.951 220.495Z" fill="#080B09"/>
<path d="M651.493 323.091C636.719 309.616 632.356 317.885 628.086 318.95C628.086 318.95 613.852 324.011 616.975 336.234C620.276 349.168 655.749 433.225 655.749 433.225L700.51 422.629L696.446 410.907L688.082 386.762L679.15 360.945L678.227 357.849L667.379 323.741C667.379 323.741 659.192 330.318 651.493 323.091Z" fill="#5661AE"/>
<path d="M658.771 349.245C669.642 339.938 670.911 323.58 661.604 312.709C652.297 301.837 635.939 300.569 625.067 309.876C614.196 319.183 612.928 335.541 622.235 346.412C631.541 357.284 647.899 358.552 658.771 349.245Z" fill="#5661AE"/>
<path d="M655.406 421.413L615.82 528.517C615.606 529.175 615.643 529.889 615.924 530.521C616.205 531.154 616.71 531.659 617.342 531.941L637.05 540.596C637.998 541 639.063 541.037 640.036 540.7C641.01 540.363 641.824 539.676 642.32 538.772L697.903 437.33L655.406 421.413Z" fill="#5661AE"/>
<path d="M677.55 449.919C690.231 449.919 700.51 439.639 700.51 426.958C700.51 414.277 690.231 403.998 677.55 403.998C664.869 403.998 654.589 414.277 654.589 426.958C654.589 439.639 664.869 449.919 677.55 449.919Z" fill="#5661AE"/>
</svg>
