<svg width="1080" height="1080" viewBox="0 0 1080 1080" fill="none" xmlns="http://www.w3.org/2000/svg">
<rect width="1080" height="1080" fill="white"/>
<path d="M604.777 398.358C615.961 386.002 612.791 382.695 618.035 375.398C623.184 368.285 622.05 347.338 626.966 351.33C631.882 355.321 631.909 362.821 631.909 362.821C637.308 357.009 643.753 345.484 653.18 346.237C662.608 346.991 662.73 350.044 666.874 355.501C677.861 370.174 656.295 383.145 651.821 388.977C648.967 392.62 632.202 401.804 630.023 404.165L620.681 412.579L604.777 398.358Z" fill="#FFCCB3"/>
<path d="M640.825 365.878L656.779 348.069" stroke="#EF6A77" stroke-width="1.07832" stroke-linecap="round"/>
<path d="M647.293 370.921L663.908 354.754" stroke="#EF6A77" stroke-width="1.07832" stroke-linecap="round"/>
<path d="M655.042 376.638L664.693 366.749" stroke="#EF6A77" stroke-width="1.07832" stroke-linecap="round"/>
<path d="M437.259 498.331L430.39 522.992L466.241 512.81L470.903 498.331H437.259Z" fill="#5CA4E6"/>
<path fill-rule="evenodd" clip-rule="evenodd" d="M696.689 817.13C683.793 812.573 670.5 807.876 658.247 808.747C657.971 808.765 657.702 808.844 657.459 808.976C657.216 809.109 657.005 809.293 656.84 809.516C656.675 809.738 656.561 809.994 656.505 810.265C656.448 810.536 656.452 810.816 656.515 811.086L661.646 832.764C661.752 833.211 662.015 833.604 662.388 833.871C662.761 834.138 663.218 834.261 663.675 834.217L746.987 826.172C753.13 825.578 756.093 821.941 756.534 816.927C756.546 816.755 756.508 816.583 756.424 816.432C756.341 816.281 756.216 816.157 756.064 816.075C755.912 815.994 755.74 815.957 755.568 815.971C755.396 815.984 755.232 816.047 755.094 816.151C745.902 823.046 734.376 826.069 722.983 824.573C714.757 823.515 705.823 820.358 696.689 817.13Z" fill="#5661AE"/>
<path fill-rule="evenodd" clip-rule="evenodd" d="M651.62 754.582C651.62 754.582 660.215 788.648 660.456 792.304C660.476 794.335 660.348 796.365 660.07 798.377C659.686 801.995 659.259 806.026 659.901 808.669C671.691 808.303 684.371 812.783 696.689 817.134C705.823 820.36 714.756 823.516 722.981 824.574C733.825 825.996 744.809 823.331 753.795 817.096C753.419 810.875 747.52 805.631 736.636 805.737C717.129 805.926 706.333 805.576 695.572 792.44C687.924 783.107 684.234 743.732 684.234 743.732L651.62 754.582Z" fill="#FFCCB3"/>
<path fill-rule="evenodd" clip-rule="evenodd" d="M693.083 787C689.489 787.842 675.189 791.125 661.237 793.396C658.526 793.838 657.666 799.437 659.716 802.22C661.128 804.277 662.372 806.444 663.435 808.702C668.296 808.989 673.114 809.779 677.812 811.058C675.334 805.747 677.984 802.272 683.094 801.015C687.129 800.023 696.868 799.854 701.909 799.837C702.186 799.835 702.456 799.755 702.689 799.604C702.922 799.454 703.106 799.241 703.222 798.989C703.337 798.737 703.377 798.457 703.339 798.183C703.3 797.909 703.184 797.651 703.003 797.441L694.518 787.474C694.346 787.271 694.121 787.119 693.868 787.035C693.614 786.952 693.343 786.94 693.083 787Z" fill="white"/>
<path fill-rule="evenodd" clip-rule="evenodd" d="M744.108 822.162C735.186 825.617 728.947 824.9 728.947 824.9L727.044 805.196L742.395 804.426L744.108 822.162Z" fill="white"/>
<path d="M643.504 617.138C658.302 612.699 666.699 597.105 662.261 582.307C657.823 567.51 642.228 559.112 627.431 563.55C612.633 567.989 604.235 583.583 608.673 598.381C613.112 613.178 628.706 621.576 643.504 617.138Z" fill="#FFCCB3"/>
<path d="M643.744 563.621L597.372 547.747L575.788 605.895L635.778 616.339L643.744 563.621Z" fill="#FFCCB3"/>
<path d="M663.196 586.629L686.737 762.549L656.2 773.115L610.037 606.084L663.196 586.629Z" fill="#FFCCB3"/>
<path fill-rule="evenodd" clip-rule="evenodd" d="M566.499 829.327C554.317 823.109 541.761 816.7 529.5 815.947C529.223 815.929 528.946 815.971 528.688 816.07C528.43 816.17 528.196 816.324 528.003 816.523C527.811 816.722 527.663 816.96 527.572 817.222C527.48 817.483 527.447 817.761 527.474 818.037L529.701 840.203C529.747 840.659 529.956 841.084 530.291 841.398C530.625 841.712 531.062 841.894 531.521 841.91L615.166 844.923C621.333 845.145 624.751 841.93 625.849 837.019C625.883 836.85 625.868 836.675 625.806 836.514C625.743 836.353 625.635 836.214 625.496 836.113C625.356 836.011 625.19 835.953 625.018 835.943C624.845 835.934 624.674 835.974 624.524 836.06C614.502 841.682 602.678 843.158 591.582 840.173C583.568 838.039 575.128 833.731 566.499 829.327Z" fill="#5661AE"/>
<path fill-rule="evenodd" clip-rule="evenodd" d="M530.075 761.381C530.075 761.381 534.101 796.283 533.858 799.939C533.611 801.955 533.215 803.95 532.675 805.908C531.817 809.444 530.862 813.383 531.15 816.088C542.885 817.28 554.864 823.393 566.5 829.331C575.128 833.733 583.567 838.04 591.581 840.173C602.142 843.013 613.382 841.82 623.112 836.825C623.56 830.608 618.404 824.633 607.601 823.302C588.24 820.917 577.584 819.146 568.65 804.706C562.3 794.445 563.835 754.927 563.835 754.927L530.075 761.381Z" fill="#FCBA9F"/>
<path fill-rule="evenodd" clip-rule="evenodd" d="M566.9 798.985C563.226 799.345 548.618 800.713 534.488 801.125C531.743 801.205 530.153 806.642 531.817 809.67C532.946 811.896 533.893 814.209 534.649 816.586C539.429 817.512 544.101 818.931 548.589 820.818C546.834 815.227 549.919 812.131 555.149 811.56C559.281 811.109 568.956 812.226 573.955 812.873C574.23 812.908 574.509 812.864 574.76 812.746C575.01 812.628 575.221 812.44 575.369 812.206C575.516 811.971 575.593 811.699 575.591 811.422C575.589 811.145 575.508 810.875 575.357 810.643L568.26 799.644C568.116 799.419 567.913 799.239 567.673 799.123C567.433 799.007 567.166 798.959 566.9 798.985Z" fill="white"/>
<path fill-rule="evenodd" clip-rule="evenodd" d="M612.841 840.569C603.542 842.817 597.452 841.283 597.452 841.283L598.164 821.501L613.483 822.762L612.841 840.569Z" fill="white"/>
<path d="M540.157 624.067C555.411 621.619 565.792 607.269 563.344 592.015C560.896 576.761 546.546 566.38 531.292 568.828C516.038 571.276 505.657 585.626 508.105 600.88C510.553 616.134 524.903 626.515 540.157 624.067Z" stroke="#5CA4E6" stroke-width="1.0969" stroke-miterlimit="10"/>
<path d="M563.701 596.422L563.834 773.91L532.171 780.356L508.44 608.696L563.701 596.422Z" fill="#FCBA9F"/>
<path d="M480.813 531.62C480.813 531.62 472.299 573.281 483.456 590.691C497.577 612.727 514.849 616.101 527.613 616.339L596.576 610.391C596.576 610.391 596.119 570.74 621.66 555.927C621.66 555.927 516.981 517.293 480.813 531.62Z" fill="#5661AE"/>
<path d="M454.265 319.074L448.787 347.051L417.083 344.899L423.157 315.161L454.265 319.074Z" fill="#FFCCB3"/>
<path d="M453.946 320.701L451.285 334.292C451.285 334.292 443.999 328.082 442.592 318.39L453.946 320.701Z" fill="#FCBA9F"/>
<path d="M407.31 352.853C407.31 352.853 414.53 334.012 418.839 336.3C429.081 341.738 444.041 340.73 450.664 337.462C454.633 335.504 454.784 352.853 454.784 352.853L407.31 352.853Z" fill="#FEBB94"/>
<path d="M407.31 352.853L376.886 356.929C376.051 357.041 375.292 357.474 374.771 358.136C374.251 358.799 374.009 359.638 374.097 360.476L395.338 561.992L504.338 551.293L490.849 359.533L454.784 352.853H407.31Z" fill="#FEBB94"/>
<path d="M484.875 410.274L476.373 394.811L478.465 410.274H484.875Z" fill="#FF967C"/>
<path d="M488.957 359.183C500.451 360.946 510.086 368.605 513.305 375.297L541.739 440.071L611.561 384.231L631.41 405.138L568.647 482.68C556.025 499.303 534.192 506.143 519.322 484.465L495.564 447.15L488.957 359.183Z" fill="#FEBB94"/>
<path d="M541.739 440.072L549.683 455.688L555.729 428.882L541.739 440.072Z" fill="#FF967C"/>
<path d="M377.118 356.898C377.118 356.898 368.908 356.752 362.006 368.831C355.104 380.91 327.15 454.074 327.15 454.074C327.15 454.074 314.38 481.683 340.264 482.718H394.446L377.118 356.898Z" fill="#FEBB94"/>
<path d="M383.231 410.274L380.963 400.141L375.255 410.274H383.231Z" fill="#FF967C"/>
<path d="M526.568 616.268H408.238C404.511 616.268 400.909 614.924 398.094 612.482C395.279 610.04 393.438 606.665 392.911 602.976L367.905 427.945C367.591 425.75 367.753 423.512 368.379 421.384C369.005 419.256 370.082 417.288 371.535 415.612C372.988 413.936 374.785 412.592 376.803 411.671C378.821 410.75 381.013 410.273 383.231 410.273H501.562C505.289 410.273 508.89 411.618 511.706 414.06C514.521 416.501 516.361 419.877 516.888 423.566L541.895 598.596C542.209 600.792 542.047 603.03 541.421 605.158C540.794 607.286 539.718 609.254 538.265 610.93C536.811 612.606 535.015 613.95 532.997 614.871C530.979 615.792 528.787 616.268 526.568 616.268Z" fill="#5CA4E6"/>
<path d="M518.593 616.268H609.214C609.992 616.268 610.756 616.063 611.429 615.672C612.102 615.281 612.66 614.72 613.045 614.044C613.431 613.368 613.631 612.602 613.626 611.824C613.62 611.046 613.409 610.283 613.013 609.613C612.705 609.09 612.291 608.636 611.798 608.28C611.306 607.924 610.745 607.673 610.151 607.544L536.792 591.597L518.593 616.268Z" fill="#5CA4E6"/>
<path d="M518.593 616.268H400.262C396.535 616.268 392.934 614.924 390.118 612.482C387.303 610.04 385.463 606.665 384.936 602.976L359.929 427.945C359.615 425.75 359.777 423.512 360.403 421.384C361.03 419.256 362.106 417.288 363.559 415.612C365.013 413.936 366.809 412.592 368.827 411.671C370.845 410.75 373.038 410.273 375.256 410.273H493.586C497.313 410.273 500.915 411.618 503.73 414.06C506.546 416.501 508.386 419.877 508.913 423.566L533.919 598.596C534.233 600.792 534.071 603.03 533.445 605.158C532.819 607.286 531.742 609.254 530.289 610.93C528.836 612.606 527.039 613.95 525.021 614.871C523.003 615.792 520.811 616.268 518.593 616.268Z" fill="url(#paint0_linear)"/>
<path d="M437.899 616.268H524.164C524.164 625.785 520.384 634.913 513.654 641.643C506.924 648.372 497.797 652.153 488.28 652.153H473.784C464.267 652.153 455.139 648.372 448.41 641.643C441.68 634.913 437.899 625.785 437.899 616.268Z" fill="#E7EFFF"/>
<path d="M482.948 652.153H479.117V824.644H482.948V652.153Z" fill="#5CA4E6"/>
<path d="M479.117 824.645L426.535 841.684H534.713L482.947 824.645H479.117Z" fill="#5CA4E6"/>
<path d="M455.704 259.765C455.704 259.765 468.287 282.468 472.65 291.838C477.014 301.207 478.506 311.314 471.239 315.967C461.35 322.298 450.408 320.891 438.616 319.574C428.408 318.433 415.617 289.709 417.184 282.658C418.751 275.606 436.504 247.319 455.704 259.765Z" fill="#FFCCB3"/>
<path d="M465.086 285.787C466.002 285.046 465.86 283.351 464.768 282.001C463.677 280.65 462.049 280.156 461.133 280.897C460.216 281.638 460.359 283.333 461.45 284.683C462.542 286.033 464.17 286.528 465.086 285.787Z" fill="#080B09"/>
<path d="M451.532 282.335L461.132 275.508C460.897 275.236 460.609 275.016 460.284 274.862C459.96 274.709 459.607 274.625 459.248 274.616C458.889 274.607 458.533 274.674 458.201 274.811C457.869 274.948 457.57 275.154 457.323 275.414L450.963 281.862C450.737 282.044 451.193 282.609 451.532 282.335Z" fill="#080B09"/>
<path d="M470.834 299.878C469.545 300.679 468.058 301.104 466.54 301.104C465.022 301.104 463.535 300.679 462.246 299.878" stroke="#EF6A77" stroke-miterlimit="10" stroke-linecap="round"/>
<path d="M446.68 273.381L467.237 262.985C467.237 262.985 459.782 238.737 432.473 236.203C412.438 234.345 393.816 245.39 386.6 262.647C379.383 279.904 385.554 308.335 403.857 315.16C419.337 320.934 418.839 336.3 418.839 336.3L441.508 306.573C441.508 306.573 425.824 298.944 429.585 289.63C434.684 277.005 447.495 291.6 447.495 291.6L438.826 266.37L446.68 273.381Z" fill="#1F2D49"/>
<path d="M468.405 283.342C468.405 283.342 471.834 287.809 473.909 288.671C475.983 289.532 474.126 292.706 472.744 293.147C471.362 293.588 467.617 285.451 468.405 283.342Z" fill="#FFCCB3"/>
<path d="M383.658 307.7C397.11 307.7 408.016 296.794 408.016 283.342C408.016 269.89 397.11 258.984 383.658 258.984C370.205 258.984 359.3 269.89 359.3 283.342C359.3 296.794 370.205 307.7 383.658 307.7Z" fill="#0D1B33"/>
<path d="M380.963 308.77C394.416 308.77 405.321 297.865 405.321 284.412C405.321 270.96 394.416 260.054 380.963 260.054C367.511 260.054 356.605 270.96 356.605 284.412C356.605 297.865 367.511 308.77 380.963 308.77Z" fill="#1F2D49"/>
<defs>
<linearGradient id="paint0_linear" x1="442.585" y1="409.784" x2="498.29" y2="844.533" gradientUnits="userSpaceOnUse">
<stop stop-color="white"/>
<stop offset="1" stop-color="#94B9FF"/>
</linearGradient>
</defs>
</svg>
