<svg width="1080" height="1080" viewBox="0 0 1080 1080" fill="none" xmlns="http://www.w3.org/2000/svg">
<rect width="1080" height="1080" fill="white"/>
<path d="M724.417 649.197H540.204V738.66H724.417V649.197Z" fill="#FFCCB3"/>
<path d="M539.119 704.351C517.514 725.608 509.014 830.295 510.153 888.967H767.323C767.323 888.967 766.86 761.02 747.363 717.904C729.433 678.254 699.629 736.743 539.119 704.351Z" fill="#1F2D49"/>
<path d="M693.464 242.049C693.464 242.049 714.802 217.71 756.22 214.169C797.639 210.628 810.032 246.905 808.262 269.193C806.491 291.481 774.032 337.514 780.524 356.99C787.015 376.466 756.489 367.023 753.162 328.072C749.835 289.12 737.441 234.825 703.801 254.3L693.464 242.049Z" fill="#080B09"/>
<path d="M699.94 230.656C699.94 230.656 705.043 227.7 708.739 234.598C712.434 241.496 719.336 255.502 710.588 259.216C701.841 262.929 699.94 230.656 699.94 230.656Z" fill="#1C85E8"/>
<path d="M581.626 454.977C581.626 454.977 614.714 492.113 603.709 504.025C581.915 528.507 523.949 574.52 504.955 589.751C504.135 590.379 503.199 590.838 502.201 591.103C501.202 591.367 500.161 591.431 499.138 591.291C498.115 591.151 497.13 590.81 496.239 590.287C495.348 589.765 494.57 589.071 493.948 588.246L449.035 529.197C447.279 526.924 446.46 524.064 446.746 521.206C447.033 518.347 448.403 515.707 450.576 513.827L537.572 438.809L581.626 454.977Z" fill="#1C85E8"/>
<path d="M529.392 502.189C529.392 502.189 488.158 526.697 484.442 575.94L492.654 586.489C492.654 586.489 497.81 595.475 504.956 589.751C512.101 584.027 545.155 557.55 545.155 557.55L529.392 502.189Z" fill="#0E66AF"/>
<path d="M567.946 520.857C593.666 520.857 614.517 500.007 614.517 474.287C614.517 448.566 593.666 427.716 567.946 427.716C542.225 427.716 521.375 448.566 521.375 474.287C521.375 500.007 542.225 520.857 567.946 520.857Z" fill="#1C85E8"/>
<path d="M446.676 620.27L405.976 566.383L444.505 536.471L450.543 531.609L492.76 586.818L485.409 592.105L446.676 620.27Z" fill="#FFCCB3"/>
<path d="M485.409 592.105C474.507 577.509 454.005 548.982 444.505 536.471L450.544 531.609L492.654 586.49L485.409 592.105Z" fill="#FF967C"/>
<path d="M425.707 627.745C444.378 627.745 459.514 612.609 459.514 593.938C459.514 575.267 444.378 560.131 425.707 560.131C407.036 560.131 391.9 575.267 391.9 593.938C391.9 612.609 407.036 627.745 425.707 627.745Z" fill="#FFCCB3"/>
<path d="M454.333 575.752C454.333 575.752 345.277 415.595 340.235 401.994C335.33 388.711 309.57 420.674 309.57 420.674L393.974 604.824L454.333 575.752Z" fill="#FFCCB3"/>
<path d="M604.471 352.407L591.36 443.811C591.36 443.811 587.919 455.943 603.193 457.78C618.467 459.616 651.034 455.513 662.666 443.117C674.297 430.722 670.228 424.581 670.228 424.581L645.56 325.371L604.471 352.407Z" fill="#FFCCB3"/>
<path d="M602.646 364.235L634.715 352.908L594.985 411.792L602.646 364.235Z" fill="#FF967C"/>
<path d="M568.187 239.506C568.187 239.506 540.675 304.151 555.013 348.457C564.364 377.351 584.729 382.546 631.367 360.893C674.129 341.039 685.236 326.019 685.236 326.019L691.543 253.957C691.543 253.957 596.128 181.887 568.187 239.506Z" fill="#FFCCB3"/>
<path d="M591.128 417.531C591.128 417.531 555.885 427.323 548.732 433.045C541.58 438.767 536.378 485.276 525.807 508.249C510.157 542.259 500.024 560.352 526.316 597.727C542.174 620.27 536.782 677.579 536.782 677.579H729.847C723.998 564.892 749.883 432.053 749.883 432.053L662.748 411.975C643.102 415.362 591.128 417.531 591.128 417.531Z" fill="#1C85E8"/>
<path d="M584.965 419.349C584.965 419.349 587.571 401.636 595.901 400.389C604.23 399.141 655.127 391.486 663.043 394.819C670.96 398.152 680.543 419.349 680.543 419.349C680.543 419.349 664.293 458.984 640.96 461.068C617.628 463.151 577.468 455.958 581.715 441.222C585.961 426.485 584.965 419.349 584.965 419.349Z" fill="#1C85E8"/>
<path d="M569.114 424.734C569.114 424.734 574.745 458.919 605.322 458.379C635.899 457.84 680.331 411.975 680.331 411.975" stroke="white" stroke-width="1.35709" stroke-miterlimit="10"/>
<path d="M707.651 474.286C707.651 474.286 677.267 494.374 686.217 514.644C696.281 537.435 696.194 596.132 667.312 599.811C615.776 606.374 638.168 615.386 661.996 621.145C685.824 626.903 676.069 626.909 676.069 651.595C676.069 669.164 731.282 684.397 729.847 670.201C720.246 575.222 760.154 515.081 707.651 474.286Z" fill="#0E66AF"/>
<path d="M565.736 334.615L591.329 335.881C591.238 336.196 591.098 336.627 590.898 337.133C590.462 338.234 589.74 339.683 588.595 341.086C586.325 343.867 582.359 346.512 575.507 345.819C571.181 344.99 568.721 342.081 567.328 339.327C566.631 337.947 566.208 336.617 565.959 335.631C565.857 335.226 565.785 334.881 565.736 334.615Z" fill="#E56441" stroke="#E56441"/>
<path d="M567.424 292.119C568.494 288.154 567.18 284.352 564.489 283.626C561.799 282.9 558.751 285.526 557.682 289.491C556.612 293.456 557.926 297.258 560.616 297.984C563.307 298.71 566.355 296.084 567.424 292.119Z" fill="#080B09"/>
<path d="M607.017 303.409C608.087 299.444 606.773 295.642 604.083 294.916C601.392 294.19 598.344 296.816 597.275 300.781C596.205 304.746 597.519 308.548 600.21 309.274C602.9 310 605.948 307.374 607.017 303.409Z" fill="#080B09"/>
<path d="M557.412 271.64L577.539 277.425C577.89 277.495 578.253 277.435 578.563 277.257C578.873 277.079 579.108 276.795 579.224 276.457C579.316 275.822 579.279 275.175 579.114 274.555C578.949 273.935 578.66 273.354 578.265 272.849C577.869 272.343 577.376 271.923 576.813 271.614C576.251 271.305 575.632 271.113 574.994 271.049L557.706 269.23C556.381 268.873 555.755 271.193 557.412 271.64Z" fill="#080B09"/>
<path d="M626.223 288.845L598.929 283.259C599.175 282.447 599.59 281.696 600.144 281.053C600.699 280.411 601.383 279.892 602.15 279.529C602.918 279.167 603.753 278.969 604.602 278.949C605.45 278.929 606.294 279.087 607.078 279.413L627.002 287.277C627.664 287.456 627.217 289.113 626.223 288.845Z" fill="#080B09"/>
<path d="M579.596 293.253L566.65 310.687L571.525 317.58" stroke="#E56441" stroke-width="2.23881" stroke-linecap="round"/>
<path d="M603.673 483.46C606.179 483.46 608.211 477.845 608.211 470.92C608.211 463.994 606.179 458.38 603.673 458.38C601.166 458.38 599.134 463.994 599.134 470.92C599.134 477.845 601.166 483.46 603.673 483.46Z" fill="white"/>
<path d="M812.882 655.992L745.577 661.507L734.088 612.73L720.247 575.222L791.077 566.745L799.933 608.723L812.882 655.992Z" fill="#FFCCB3"/>
<path d="M793.468 578.081L795.951 589.852L726.199 591.353L721.61 578.919L793.468 578.081Z" fill="#FF967C"/>
<path d="M738.302 523.732C764.023 523.732 784.873 502.882 784.873 477.162C784.873 451.441 764.023 430.591 738.302 430.591C712.582 430.591 691.731 451.441 691.731 477.162C691.731 502.882 712.582 523.732 738.302 523.732Z" fill="#1C85E8"/>
<path d="M729.32 455.267C729.32 455.267 778.402 447.21 782.569 462.883C791.574 494.399 802.642 544.994 805.334 569.19C805.425 570.219 805.312 571.256 805 572.241C804.689 573.225 804.186 574.139 803.519 574.928C802.853 575.717 802.038 576.366 801.119 576.839C800.201 577.311 799.198 577.597 798.169 577.68L724.249 583.989C721.388 584.255 718.535 583.416 716.274 581.643C714.013 579.87 712.517 577.299 712.093 574.458L692.075 483.813L729.32 455.267Z" fill="#1C85E8"/>
<path d="M585.34 233.361C585.34 233.361 587.081 264.76 613.682 279.977C613.682 279.977 621.46 304.059 650.491 309.723C650.491 309.723 648.777 287.588 662.613 287.822C686.11 288.22 674.553 323.861 658.667 329.709C647.872 333.682 641.369 347.787 657.395 379.93C694.191 366.805 720.069 313.802 709.924 254.996C701.799 207.905 643.418 192.526 631.423 194.06C631.423 194.06 581.61 176.852 555.381 224.048C532.959 264.394 553.899 288.473 553.899 288.473L565.849 252.565C565.849 252.565 570.84 256.07 585.34 233.361Z" fill="#080B09"/>
<path d="M813.13 772.351H634.865C631.417 772.351 628.087 771.091 625.502 768.81C622.917 766.528 621.253 763.381 620.825 759.959L604.371 628.64C604.121 626.649 604.298 624.627 604.889 622.71C605.481 620.792 606.474 619.022 607.802 617.518C609.129 616.013 610.762 614.808 612.591 613.983C614.421 613.157 616.404 612.73 618.411 612.73H829.584C831.591 612.73 833.575 613.157 835.404 613.983C837.233 614.808 838.866 616.013 840.194 617.518C841.522 619.022 842.514 620.792 843.106 622.71C843.697 624.627 843.874 626.649 843.625 628.64L827.171 759.959C826.742 763.381 825.079 766.528 822.494 768.81C819.908 771.091 816.579 772.351 813.13 772.351Z" fill="url(#paint0_linear)"/>
<path d="M724.416 702.604C731.327 702.604 736.929 697.002 736.929 690.092C736.929 683.181 731.327 677.579 724.416 677.579C717.506 677.579 711.904 683.181 711.904 690.092C711.904 697.002 717.506 702.604 724.416 702.604Z" fill="white"/>
<path d="M314.205 431.195L303.463 410.586C303.463 410.586 265.479 388.858 261.077 381.003C256.674 373.146 254.944 350.716 262.738 344.973C262.738 344.973 232.432 322.211 237.591 317.599C242.734 312.653 302.274 356.884 302.274 356.884C302.274 356.884 295.026 324.298 306.041 322.771C309.025 335.401 314.137 347.431 321.159 358.345C332.756 376.278 334.185 392.338 334.185 392.338L347.854 418.572L314.205 431.195Z" fill="#FFCCB3"/>
<path d="M264.78 345.549L283.133 357.115" stroke="#FF967C" stroke-width="2.87188" stroke-linecap="round" stroke-linejoin="round"/>
<path d="M262.044 358.781L277.621 368.463" stroke="#FF967C" stroke-width="2.87188" stroke-linecap="round" stroke-linejoin="round"/>
<path d="M265.071 373.086L275.461 379.652" stroke="#FF967C" stroke-width="2.87188" stroke-linecap="round" stroke-linejoin="round"/>
<path d="M776.831 766.992C776.831 766.992 786.253 767.775 784.834 772.529C783.415 777.284 775.003 775.089 767.322 779.844C759.642 784.598 729.276 787.991 714.109 785.464C698.941 782.936 694.728 766.992 694.728 766.992C694.728 766.992 692.192 751.867 718.984 750.314C745.776 748.76 758.244 757.357 762.904 766.676L776.831 766.992Z" fill="#FFCCB3"/>
<path d="M706.118 752.664L711.904 768.227" stroke="#E56441" stroke-width="2.23881" stroke-linecap="round"/>
<path d="M721.104 750.131L726.89 765.694" stroke="#E56441" stroke-width="2.23881" stroke-linecap="round"/>
<path d="M736.929 751.448L742.715 767.011" stroke="#E56441" stroke-width="2.23881" stroke-linecap="round"/>
<path d="M268.032 755.681V776.615" stroke="white" stroke-width="2.42819" stroke-miterlimit="10"/>
<defs>
<linearGradient id="paint0_linear" x1="718.036" y1="612.351" x2="742.652" y2="952.979" gradientUnits="userSpaceOnUse">
<stop stop-color="white"/>
<stop offset="1" stop-color="#94B9FF"/>
</linearGradient>
</defs>
</svg>
