<svg width="1080" height="1080" viewBox="0 0 1080 1080" fill="none" xmlns="http://www.w3.org/2000/svg">
<rect width="1080" height="1080" fill="white"/>
<path d="M372.865 170.446L362.031 658.764L725.376 666.825L736.21 178.507L372.865 170.446Z" fill="url(#paint0_linear)"/>
<path d="M523.5 270.71C536.724 270.71 547.444 259.991 547.444 246.767C547.444 233.544 536.724 222.824 523.5 222.824C510.277 222.824 499.557 233.544 499.557 246.767C499.557 259.991 510.277 270.71 523.5 270.71Z" fill="#1F2D49"/>
<path d="M501.023 240.498C509.911 240.498 517.116 233.293 517.116 224.404C517.116 215.516 509.911 208.311 501.023 208.311C492.135 208.311 484.93 215.516 484.93 224.404C484.93 233.293 492.135 240.498 501.023 240.498Z" fill="#1F2D49"/>
<path d="M334.036 853.032C334.278 853.058 334.386 853.193 334.252 853.3C334.359 853.434 334.359 853.434 334.333 853.676C334.842 855.339 335.202 857.045 335.408 858.772L314.716 875.401L312.426 872.827C312.426 872.827 320.062 863.38 322.93 860.633C324.163 859.421 325.263 858.318 326.362 857.214C327.327 856.217 328.184 855.087 329.015 854.199C330.166 852.611 333.526 853.221 333.552 852.979C333.686 852.871 334.036 853.032 334.036 853.032Z" fill="#233B62"/>
<path d="M490.48 708.542L470.507 727.904L358.796 835.782L356.757 837.64L355.874 839.012L355.74 839.12L339.916 863.094L338.148 865.838L337.56 866.753L326.85 883.085L335.672 887.472L338.227 888.729L341.83 890.466L347.506 893.41L347.614 893.543L353.639 896.646L353.933 896.189L367.684 869.909C370.353 864.833 374.092 860.397 378.644 856.908L500.114 763.92L523.207 746.243L490.48 708.542Z" fill="#BC775C"/>
<path d="M341.449 840.012C346.803 837.525 352.813 835.302 358.688 835.648C355.146 838.75 353.533 844.269 351.193 848.292C346.378 856.574 334.034 871.964 340.341 885.043C343.884 892.392 353.799 896.297 353.933 896.189C355.592 903.736 363.815 934.459 347.424 916.65C338.27 906.704 329.189 896.08 324.624 885.535C322.752 881.212 326.711 876.899 328.654 873.248C331.139 867.724 334.858 860.409 334.388 854.294L334.28 854.16C334.011 853.737 312.787 872.738 312.426 872.828C311.698 871.647 310 869.26 310 869.26C310 869.26 340.429 840.391 341.449 840.012Z" fill="#FEBB94"/>
<path d="M570.023 940.509C570.214 940.359 570.385 940.379 570.365 940.55C570.535 940.571 570.535 940.571 570.685 940.762C572.212 941.595 573.662 942.563 575.017 943.653L571.855 970.01L568.419 969.772C568.419 969.772 567.27 957.679 567.4 953.709C567.434 951.981 567.448 950.423 567.461 948.865C567.454 947.478 567.276 946.071 567.25 944.855C566.962 942.915 569.79 941.001 569.64 940.81C569.66 940.639 570.023 940.509 570.023 940.509Z" fill="#233B62"/>
<path d="M580.81 727.823L580.073 755.63L575.659 910.864L575.501 913.618L575.83 915.216L575.809 915.387L581.262 943.59L581.918 946.788L582.137 947.853L585.902 967.017L595.276 963.984L597.981 963.096L601.773 961.818L607.888 959.952L608.058 959.973L614.535 957.977L614.426 957.444L605.878 929.043C604.236 923.549 603.806 917.763 604.62 912.086L626.423 760.67L630.569 731.886L580.81 727.823Z" fill="#BC775C"/>
<path d="M566.217 926.018C568.305 920.497 571.046 914.704 575.488 910.844C575.125 915.538 577.832 920.612 578.973 925.123C581.322 934.41 583.261 954.044 596.915 958.983C604.587 961.758 614.405 957.616 614.426 957.445C620.889 961.68 648.252 977.891 624.081 976.623C610.583 975.914 596.662 974.67 586.024 970.325C581.663 968.544 581.477 962.692 580.313 958.724C578.227 953.037 575.769 945.208 571.157 941.165L570.986 941.145C570.498 941.031 568.614 969.456 568.419 969.772C567.072 969.437 564.189 968.918 564.189 968.918C564.189 968.918 565.752 927.002 566.217 926.018Z" fill="#FEBB94"/>
<path d="M610.973 518.784C610.973 518.784 645.71 702.41 648.34 722.097C650.971 741.784 652.724 878.867 652.724 878.867L536.547 871.499L563.164 711.097L559.927 640.07C559.927 640.07 555.842 710.302 552.988 722.097C550.133 733.892 450.068 856.078 450.068 856.078L396.362 791.764L481.739 677.774C481.739 677.774 490.532 622.49 491.956 592.72C494.701 535.337 503.678 520.29 503.678 520.29L610.973 518.784Z" fill="#1F2D49"/>
<path d="M610.906 519.188L503.678 520.29L497.632 541.855L612.718 526.84L610.906 519.188Z" fill="#0D1B33"/>
<path d="M726.434 388.448L734.596 378C736.305 375.554 738.577 373.555 741.222 372.172C745.238 370.162 751.396 366.41 753.536 362.66C757.082 356.7 771.059 340.601 758.936 328.087C754.448 323.469 755.569 324.562 746.598 324.701C737.627 324.838 736.25 334.147 731.767 340.241C731.767 340.241 730.759 333.212 725.804 330.001C720.848 326.79 724.137 346.404 720.324 353.838C716.512 361.271 719.593 364.081 710.561 377.141L726.434 388.448Z" fill="#BC775C"/>
<path d="M747.962 325.773L740.673 342.314L747.962 325.773Z" fill="#E56441"/>
<path d="M747.962 325.773L740.673 342.314" stroke="#E56441" stroke-width="1.03302" stroke-linecap="round"/>
<path d="M757.471 328.715L747.369 346.327L757.471 328.715Z" fill="#E56441"/>
<path d="M757.471 328.715L747.369 346.327" stroke="#E56441" stroke-width="1.03302" stroke-linecap="round"/>
<path d="M763.435 340.294L755.472 350.809L763.435 340.294Z" fill="#E56441"/>
<path d="M763.435 340.294L755.472 350.809" stroke="#E56441" stroke-width="1.03302" stroke-linecap="round"/>
<path d="M733.643 343.99C733.643 343.99 736.727 352.826 736.194 359.789L733.643 343.99Z" fill="#E56441"/>
<path d="M733.643 343.99C733.643 343.99 736.727 352.826 736.194 359.789" stroke="#E56441" stroke-width="1.03302" stroke-linecap="round"/>
<path d="M600.009 360.427C608.39 363.332 620.071 369.223 623.233 375.797L651.165 439.429L710.561 371.327L731.181 388.449L671.856 477.153C659.278 495.887 640.837 498.467 629.144 483.04L605.806 446.382L600.009 360.427Z" fill="#FEBB94"/>
<path d="M611.921 415.203C611.921 415.203 614.439 410.859 614.439 433.536L629.144 483.039L605.806 446.382C587.082 421.209 601.874 414.485 611.921 415.203Z" fill="#FF967C"/>
<path d="M580.344 352.08C580.344 352.08 601.96 360.633 605.261 363.273C608.561 365.914 611.695 387.462 617.305 397.693C622.916 407.924 631.125 426.808 619.136 444.153C607.147 461.498 608.423 475.273 608.423 475.273L610.973 518.784L507.656 520.688C506.746 520.717 505.841 520.552 505 520.204C504.158 519.857 503.4 519.335 502.776 518.673C502.151 518.011 501.674 517.223 501.377 516.363C501.079 515.503 500.968 514.589 501.05 513.683C502.198 500.997 507.442 483.181 507.854 462.981C508.413 435.604 513.051 343.996 513.051 343.996L553.838 342.716C562.904 344.279 580.344 352.08 580.344 352.08Z" fill="white"/>
<path d="M608.878 483.039V483.038L608.639 478.962C608.573 476.426 608.593 473.298 608.679 469.794C609.389 464.209 611.732 454.865 619.136 444.153C631.124 426.808 622.916 407.924 617.305 397.693C611.695 387.461 608.561 365.914 605.261 363.273C601.96 360.633 591.532 356.673 591.532 356.673C591.532 356.673 590.915 375.468 590.29 392.68C589.665 409.893 585.7 557.206 585.7 557.206H629.144C629.144 557.206 610.297 495.77 608.878 483.039Z" fill="#FEBB94"/>
<path d="M538.683 343.191C538.683 343.191 556.179 373.995 563.164 405.289C570.149 436.584 552.869 541.963 555.175 555.587L474.342 561.761C474.342 561.761 503.309 523.216 505.435 486.978C507.56 450.741 511.285 377.72 511.285 377.72L515.264 344.171L538.683 343.191Z" fill="#FEBB94"/>
<path d="M526.544 381.521C526.544 381.521 532.882 395.194 533.768 405.379C534.653 415.565 525.931 439.653 545.28 442.486C568.999 445.958 563.848 450.431 552.854 453.088C541.859 455.745 529.171 450.384 528.263 461.738C526.841 479.523 514.421 489.503 505.435 486.978C511.462 432.873 504.362 409.277 526.544 381.521Z" fill="#FF967C"/>
<path d="M580.529 325.656L585.156 359.374C585.156 359.374 588.071 366.427 580.398 366.922C572.726 367.416 561.557 363.249 554.725 357.726C547.894 352.203 548.192 351.613 549.892 346.915C551.591 342.216 557.397 307.646 557.397 307.646L580.529 325.656Z" fill="#BC775C"/>
<path d="M584.392 357.518C580.299 351.825 575.899 343.457 572.408 336.238C570.5 332.291 568.869 328.699 567.715 326.094C567.138 324.791 566.68 323.736 566.367 323.006C566.366 323.004 566.365 323.002 566.364 323L580.391 328.848L584.392 357.518Z" fill="#93523E" stroke="#93523E"/>
<path d="M593.639 260.715C593.639 260.715 605.758 295.19 598.356 316.372C593.529 330.185 584.073 329.43 561.85 318.479C541.474 308.437 536.292 301.079 536.292 301.079L534.06 266.297C534.06 266.297 580.824 232.648 593.639 260.715Z" fill="#BC775C"/>
<path d="M574.756 265.32C574.756 265.32 572.792 274.158 561.653 280.794C555.591 284.406 554.742 299.588 554.742 299.588C554.742 299.588 553.328 289.208 545.18 292.888C537.032 296.568 549.484 309.76 556.55 312.617C556.55 312.617 555.718 317.058 553.782 327.633C553.782 327.633 527.679 318.181 524.651 293.886C523.143 281.788 518.593 243.722 552.833 238.29C590.29 232.347 594.942 254.842 600.009 272.549C600.009 272.549 585.26 280.364 574.756 265.32Z" fill="#1F2D49"/>
<path d="M578.57 307.987L589.68 307.463C589.671 307.501 589.661 307.54 589.651 307.58C589.539 308.021 589.349 308.615 589.037 309.228C588.415 310.451 587.337 311.71 585.457 312.07C582.399 312.369 580.661 311.189 579.671 309.97C579.166 309.348 578.847 308.704 578.654 308.215C578.623 308.134 578.594 308.058 578.57 307.987Z" fill="#93523E" stroke="#93523E"/>
<path d="M592.414 290.282C593.656 289.95 594.267 288.197 593.777 286.367C593.288 284.536 591.885 283.321 590.642 283.653C589.4 283.985 588.79 285.738 589.279 287.569C589.768 289.399 591.172 290.614 592.414 290.282Z" fill="#080B09"/>
<path d="M574.137 295.448C575.379 295.116 575.989 293.363 575.5 291.532C575.011 289.702 573.607 288.487 572.365 288.819C571.123 289.151 570.513 290.904 571.002 292.734C571.491 294.565 572.895 295.78 574.137 295.448Z" fill="#080B09"/>
<path d="M593.925 278.129L584.631 280.777C584.47 280.809 584.302 280.781 584.159 280.698C584.016 280.616 583.908 280.484 583.855 280.328C583.813 280.035 583.831 279.737 583.908 279.451C583.985 279.165 584.119 278.897 584.302 278.665C584.485 278.432 584.713 278.239 584.973 278.096C585.232 277.954 585.518 277.866 585.813 277.838L593.792 277.017C594.403 276.853 594.69 277.924 593.925 278.129Z" fill="#080B09"/>
<path d="M562.156 285.994L574.756 283.446C574.643 283.071 574.452 282.724 574.197 282.427C573.942 282.13 573.627 281.889 573.273 281.721C572.919 281.553 572.534 281.461 572.143 281.451C571.751 281.441 571.362 281.513 571 281.662L561.798 285.27C561.492 285.351 561.697 286.116 562.156 285.994Z" fill="#080B09"/>
<path d="M583.665 288.078L587.201 295.964L586.004 299.587" stroke="#93523E" stroke-width="1.03302" stroke-linecap="round"/>
<path d="M522.381 358.796C522.381 358.796 499.035 347.554 494.648 354.775C485.515 369.203 470.776 419.459 465.874 431.157C465.081 433.287 501.246 439.163 501.246 439.163L536.8 378.538L522.381 358.796Z" fill="#FEBB94"/>
<path d="M514.674 392.68C528.073 392.68 538.936 381.817 538.936 368.418C538.936 355.019 528.073 344.156 514.674 344.156C501.274 344.156 490.412 355.019 490.412 368.418C490.412 381.817 501.274 392.68 514.674 392.68Z" fill="#FEBB94"/>
<path d="M458.967 450.101L491.795 462.75L501.246 439.162L502.814 435.44L469.106 422.221L467.513 426.661L458.967 450.101Z" fill="#FEBB94"/>
<path d="M475.192 474.396C484.919 474.396 492.804 466.51 492.804 456.783C492.804 447.056 484.919 439.171 475.192 439.171C465.465 439.171 457.58 447.056 457.58 456.783C457.58 466.51 465.465 474.396 475.192 474.396Z" fill="#FEBB94"/>
<path d="M579.96 461.772C579.96 461.772 598.181 467.968 608.458 463.618C608.458 463.618 625.091 470.896 627.457 469.656C631.325 467.478 628.257 463.735 628.257 463.735C628.257 463.735 639.027 466.757 640.497 456.568C642.662 442.289 623.174 439.224 613.95 438.163C604.88 436.898 579.96 443.842 579.96 443.842V461.772Z" fill="#BC775C"/>
<path d="M632.328 437.209L613.011 437.931L631.628 443.841C631.628 443.841 638.268 440.729 635.173 438.079C634.361 437.455 633.35 437.145 632.328 437.209Z" fill="#BC775C"/>
<path d="M628.079 463.76L616.041 459.465L628.079 463.76Z" fill="#93523E"/>
<path d="M628.079 463.76L616.041 459.465" stroke="#93523E" stroke-width="1.03302" stroke-linecap="round"/>
<path d="M634.349 455.437C634.349 455.437 620.762 450.453 617.814 450.142L634.349 455.437Z" fill="#93523E"/>
<path d="M634.349 455.437C634.349 455.437 620.762 450.453 617.814 450.142" stroke="#93523E" stroke-width="1.03302" stroke-linecap="round"/>
<path d="M635.914 448.502C630.519 445.856 624.756 444.036 618.82 443.104L635.914 448.502Z" fill="#93523E"/>
<path d="M635.914 448.502C630.519 445.856 624.756 444.036 618.82 443.104" stroke="#93523E" stroke-width="1.03302" stroke-linecap="round"/>
<path d="M475.61 439.12C475.61 439.12 574.338 443.894 581.763 442.486L581.562 463.76L478.867 473.87L475.61 439.12Z" fill="#FEBB94"/>
<path d="M750.558 111.635L361.567 103.005C356.373 102.89 351.346 104.842 347.592 108.433C343.838 112.024 341.664 116.96 341.548 122.153L328.84 693.403C328.783 695.975 329.233 698.533 330.165 700.931C331.096 703.329 332.491 705.52 334.269 707.379C336.047 709.238 338.174 710.728 340.528 711.765C342.883 712.802 345.418 713.366 347.99 713.423L736.982 722.053C742.175 722.168 747.202 720.215 750.957 716.624C754.711 713.033 756.885 708.098 757 702.904L769.708 131.655C769.766 129.083 769.316 126.525 768.384 124.127C767.453 121.729 766.058 119.538 764.28 117.679C762.502 115.819 760.375 114.329 758.02 113.292C755.666 112.255 753.13 111.692 750.558 111.635ZM362.466 639.18L372.43 190.031C372.545 184.837 374.719 179.901 378.474 176.31C382.228 172.718 387.255 170.766 392.449 170.881L716.626 178.073C719.197 178.13 721.733 178.693 724.087 179.73C726.441 180.767 728.568 182.257 730.347 184.116C732.125 185.975 733.519 188.166 734.451 190.564C735.382 192.962 735.833 195.52 735.775 198.092L725.811 647.24C725.754 649.812 725.191 652.348 724.154 654.702C723.117 657.056 721.627 659.183 719.768 660.961C717.909 662.74 715.718 664.134 713.32 665.066C710.922 665.997 708.364 666.447 705.792 666.39L381.616 659.198C379.044 659.141 376.508 658.578 374.154 657.541C371.8 656.504 369.673 655.014 367.895 653.155C366.116 651.296 364.722 649.105 363.79 646.707C362.859 644.309 362.409 641.751 362.466 639.18Z" fill="url(#paint1_linear)"/>
<path d="M392.971 153.623C400.373 153.623 406.374 147.622 406.374 140.219C406.374 132.817 400.373 126.815 392.971 126.815C385.568 126.815 379.567 132.817 379.567 140.219C379.567 147.622 385.568 153.623 392.971 153.623Z" fill="white"/>
<path d="M497.632 133.885L425.1 132.276" stroke="white" stroke-width="5.36573" stroke-miterlimit="10" stroke-linecap="round"/>
<path d="M467.721 148.163L425.1 147.218" stroke="white" stroke-width="5.36573" stroke-miterlimit="10" stroke-linecap="round"/>
<path d="M543.503 343.191C543.503 343.191 543.077 414.769 570.833 422.214C598.589 429.66 600.009 360.427 600.009 360.427" stroke="white" stroke-width="1.78858" stroke-miterlimit="10"/>
<defs>
<linearGradient id="paint0_linear" x1="-1581.19" y1="396.205" x2="-1488.38" y2="1218.07" gradientUnits="userSpaceOnUse">
<stop stop-color="white"/>
<stop offset="1" stop-color="#94B9FF"/>
</linearGradient>
<linearGradient id="paint1_linear" x1="498.235" y1="-93.9703" x2="782.921" y2="1384.26" gradientUnits="userSpaceOnUse">
<stop stop-color="white"/>
<stop offset="1" stop-color="#94B9FF"/>
</linearGradient>
</defs>
</svg>
